<?xml version="1.0" standalone="no"?>
<!DOCTYPE svg PUBLIC "-//W3C//DTD SVG 20010904//EN"
 "http://www.w3.org/TR/2001/REC-SVG-20010904/DTD/svg10.dtd">
<svg version="1.0" xmlns="http://www.w3.org/2000/svg"
 viewBox="278 378 435 298"
 preserveAspectRatio="xMidYMid meet">

<g transform="translate(0.000000,1280.000000) scale(0.100000,-0.100000)"
fill="#000000" stroke="none">
<path d="M4129 8880 c-58 -11 -153 -36 -210 -55 -506 -175 -915 -539 -1136
-1014 -100 -214 -155 -432 -155 -616 -1 -133 21 -193 97 -264 97 -92 33 -85
860 -91 l730 -5 47 -28 c26 -15 134 -113 240 -217 l193 -190 -183 -179 c-101
-99 -207 -196 -237 -215 l-54 -36 -733 -6 -733 -7 -45 -22 c-57 -29 -135 -111
-163 -173 -17 -38 -21 -66 -21 -147 1 -204 55 -417 160 -634 99 -202 204 -351
363 -514 170 -174 332 -292 543 -395 221 -108 402 -158 608 -169 92 -5 112 -3
162 17 76 28 159 105 193 175 l25 54 1 513 c0 282 4 612 7 734 7 216 8 221 33
260 15 21 110 125 213 229 l186 190 194 -198 c136 -138 203 -214 220 -250 l26
-51 0 -682 c0 -458 4 -701 11 -736 30 -144 151 -246 306 -256 216 -14 575 96
833 255 468 289 826 809 895 1301 31 218 7 332 -89 420 -92 85 -29 78 -854 85
l-734 7 -51 27 c-31 17 -123 100 -241 216 l-191 188 196 194 c145 144 208 200
245 217 49 22 52 22 774 29 399 4 738 10 753 14 44 12 143 109 172 170 48 97
42 264 -16 489 -50 191 -175 444 -310 626 -77 104 -259 296 -342 360 -251 194
-542 330 -813 380 -254 47 -405 8 -488 -124 -57 -92 -56 -82 -56 -439 0 -183
-3 -511 -7 -730 l-6 -399 -26 -39 c-15 -21 -109 -125 -210 -230 l-184 -191
-130 129 c-71 70 -167 170 -212 221 -70 77 -85 100 -90 135 -3 23 -10 357 -14
742 -6 473 -13 712 -20 737 -17 55 -110 151 -173 179 -73 32 -215 35 -359 9z
m16 -539 c17 -9 39 -34 50 -56 18 -38 20 -66 23 -513 l4 -473 -478 3 c-383 2
-484 6 -504 17 -107 59 -112 139 -20 326 149 304 496 619 785 711 46 14 97 9
140 -15z m2138 -5 c35 -13 83 -34 108 -46 74 -37 259 -174 346 -254 153 -143
332 -429 349 -558 8 -61 -27 -126 -81 -153 -38 -19 -64 -20 -513 -23 l-473 -3
3 473 c3 418 5 477 20 510 35 78 124 98 241 54z m-2063 -3238 c0 -408 -8 -559
-31 -596 -20 -32 -82 -62 -128 -62 -48 0 -172 47 -254 97 -246 149 -477 393
-587 618 -62 127 -77 183 -62 234 15 48 62 92 109 101 21 4 244 8 496 9 l457
1 0 -402z m2797 376 c15 -11 39 -36 51 -55 20 -29 23 -42 17 -82 -20 -156
-173 -396 -376 -592 -174 -168 -419 -305 -544 -305 -39 0 -52 6 -88 39 l-42
39 -6 134 c-4 73 -8 294 -8 491 l-1 358 484 -3 c473 -3 485 -3 513 -24z"/>
</g>
</svg>
