<?xml version="1.0" encoding="UTF-8"?>
<svg version="1.1" xmlns="http://www.w3.org/2000/svg" viewBox="220 545 640 175" width="640" height="175">
<path d="M0 0 C337.92 0 675.84 0 1024 0 C1024 422.4 1024 844.8 1024 1280 C686.08 1280 348.16 1280 0 1280 C0 857.6 0 435.2 0 0 Z " fill="#F4F5FA" transform="translate(0,0)"/>
<path d="M0 0 C3.65344929 2.74694194 4.88143769 4.16604105 5.5324707 8.74536133 C5.51960819 10.19129815 5.48272665 11.63715895 5.42578125 13.08203125 C5.41786845 14.66991831 5.41073143 16.25780939 5.40429688 17.84570312 C5.36484322 20.3278529 5.31260333 22.8087679 5.24389648 25.2902832 C4.70062903 35.01746544 4.70062903 35.01746544 7.82568359 43.91943359 C9.78699421 45.88074421 11.6714158 47.50152362 14 49 C18.64281512 46.82633842 21.75065326 44.73424586 24 40 C24.76769296 34.12475222 24.66702459 28.29049442 24.5625 22.375 C24.52560992 19.97642118 24.49799245 17.5796951 24.50120544 15.18081665 C24.5029639 13.69479339 24.4820355 12.20851429 24.43495178 10.72323608 C24.43656706 6.77027913 24.87604642 5.15406438 27.38793945 2.03198242 C30 0 30 0 32.2890625 -0.41015625 C45.1453847 1.50324287 55.46467544 6.00032886 63.8828125 16.3046875 C65.38479578 18.48595971 66.72295626 20.68072379 68 23 C68.59941406 24.07314453 68.59941406 24.07314453 69.2109375 25.16796875 C71.09220424 28.72369631 72.58514704 31.95518367 73 36 C73.12375 37.155 73.2475 38.31 73.375 39.5 C73 43 73 43 70.98168945 45.69213867 C67.23554009 48.59170061 64.45008315 48.60440124 59.91796875 48.42578125 C58.33008169 48.41786845 56.74219061 48.41073143 55.15429688 48.40429688 C52.6721471 48.36484322 50.1912321 48.31260333 47.7097168 48.24389648 C37.98253456 47.70062903 37.98253456 47.70062903 29.08056641 50.82568359 C27.11925579 52.78699421 25.49847638 54.6714158 24 57 C25.60408613 61.17062394 28.34357213 64.47257092 32 67 C34.87014585 67.78822537 37.57793405 67.74774496 40.5390625 67.6640625 C41.74397842 67.670392 41.74397842 67.670392 42.97323608 67.67684937 C45.52477899 67.68767137 48.07370038 67.65971156 50.625 67.625 C53.18308117 67.60093074 55.73999905 67.58576862 58.29818726 67.59457397 C59.88535297 67.59914162 61.47272077 67.58451052 63.05947876 67.54824829 C66.62939894 67.54999329 68.59854729 67.69522108 71.48388672 69.88574219 C74.22297733 73.70547241 73.62308256 77.50212278 73 82 C70.10543597 93.52398303 62.51686414 102.81444513 52.7890625 109.33984375 C45.10821064 113.91177938 38.04146502 116.29378701 29 115 C26 113 26 113 25 110 C24.92960496 107.50900033 24.91110454 105.04105793 24.9296875 102.55078125 C24.92109805 101.04751449 24.91062019 99.54425756 24.8984375 98.04101562 C24.88179967 95.68162406 24.874871 93.32442591 24.90039062 90.96508789 C25.24496516 80.26581793 25.24496516 80.26581793 20.6953125 70.91796875 C17.80327295 68.07015118 17.30728746 68 13 68 C9.61010759 69.59311424 7.77485289 71.7270409 6 75 C5.07771253 81.06455417 5.19466936 87.06688598 5.3125 93.1875 C5.34404504 95.66751835 5.36527597 98.14631528 5.36308289 100.62654114 C5.36321242 102.16370249 5.3833359 103.70102826 5.42610168 105.2375946 C5.44054007 108.74197531 5.28153801 110.62842438 3.13500977 113.46142578 C-0.37258822 115.98914248 -3.35620002 115.72116903 -7.56640625 115.58203125 C-17.489877 113.89989571 -27.51221929 107.82342973 -33.640625 99.87109375 C-38.72811845 92.57325727 -42.10311386 85.43427622 -42.25 76.4375 C-42.27578125 75.48746094 -42.3015625 74.53742188 -42.328125 73.55859375 C-42 71 -42 71 -40.97241211 69.35668945 C-37.90380736 67.24600291 -34.70140022 67.65957666 -31.11328125 67.734375 C-29.51887784 67.73160171 -27.92447611 67.72765766 -26.33007812 67.72265625 C-23.82605009 67.73097772 -21.32330042 67.74982442 -18.81958008 67.79052734 C-7.63190966 68.3086129 -7.63190966 68.3086129 2.14453125 63.703125 C4.94747183 60.80668787 5 60.2764872 5 56 C3.42739413 52.57786522 1.2993753 50.76583792 -2 49 C-8.11995997 47.77318316 -14.54262163 48.1967214 -20.75 48.3125 C-23.31162488 48.34400919 -25.87207381 48.36528045 -28.43389893 48.36308289 C-30.02221329 48.36321278 -31.61068345 48.38345932 -33.19842529 48.42610168 C-38.52100023 48.44741737 -38.52100023 48.44741737 -40.97729492 46.15307617 C-43.67634034 40.47084138 -42.87003362 33.55765204 -40.8984375 27.76171875 C-35.05045938 15.45594661 -26.13124521 6.59785995 -13.375 1.5625 C-8.63073978 0.02128552 -4.95563346 -0.76897761 0 0 Z " fill="#090E31" transform="translate(320,582)"/>
<path d="M0 0 C4.62 0 9.24 0 14 0 C14.33 1.65 14.66 3.3 15 5 C16.32 4.34 17.64 3.68 19 3 C19 4.32 19 5.64 19 7 C19.99 4.69 20.98 2.38 22 0 C36.12813697 -1.35912006 36.12813697 -1.35912006 40.08203125 1.51171875 C41.63089231 3.92651366 42.7892703 6.39814535 44 9 C45.51783442 11.5429468 47.13501943 14.01800313 48.75 16.5 C49.13986084 17.12342285 49.52972168 17.7468457 49.93139648 18.38916016 C51.92457399 21.7480518 51.92457399 21.7480518 55 24 C55.23332031 23.19304688 55.46664062 22.38609375 55.70703125 21.5546875 C58.36104751 14.25814732 62.1296173 6.24910053 68 1 C72.90949853 -0.92683321 77.94290379 -0.04417776 83 1 C81.33739079 5.91049696 78.58264839 9.95596363 75.75 14.25 C75.25927002 15.00635742 74.76854004 15.76271484 74.26293945 16.54199219 C71.23697934 21.19116269 68.11822356 25.74471796 64.73046875 30.140625 C63.77102944 32.04870629 63.77102944 32.04870629 64.59765625 34.31640625 C66.29754288 37.56939264 68.22456949 40.6319262 70.25 43.6875 C71.05704725 44.92509218 71.86303082 46.16337862 72.66796875 47.40234375 C73.06290527 48.00933105 73.4578418 48.61631836 73.86474609 49.24169922 C75.46674965 51.72290989 77.02468337 54.22856796 78.5625 56.75 C79.03816406 57.52859375 79.51382813 58.3071875 80.00390625 59.109375 C81 61 81 61 81 63 C81.66 63 82.32 63 83 63 C83.99 64.98 84.98 66.96 86 69 C80.84616349 69.59696948 76.14009977 69.84516635 71 69 C67.5589928 66.25767446 65.95625722 62.88670629 64 59 C62.79067858 57.02934989 61.56160753 55.07067483 60.3125 53.125 C59.77238281 52.24070312 59.23226562 51.35640625 58.67578125 50.4453125 C56.98930392 47.9843922 55.13057638 46.0765092 53 44 C50.51910596 47.79053909 48.04057804 51.58261946 45.5625 55.375 C44.85544922 56.45523438 44.14839844 57.53546875 43.41992188 58.6484375 C42.74638672 59.6796875 42.07285156 60.7109375 41.37890625 61.7734375 C40.7557251 62.72653809 40.13254395 63.67963867 39.49047852 64.66162109 C38.00637435 66.90089194 38.00637435 66.90089194 37 69 C35.80761719 68.94199219 34.61523438 68.88398437 33.38671875 68.82421875 C31.82035159 68.77732153 30.25394216 68.73182132 28.6875 68.6875 C27.90181641 68.64560547 27.11613281 68.60371094 26.30664062 68.56054688 C24.09725503 68.51353867 22.15758563 68.51447141 20 69 C18.01984815 71.39468525 18.01984815 71.39468525 17 74 C16.34 74 15.68 74 15 74 C14.67 72.68 14.34 71.36 14 70 C9.38 70 4.76 70 0 70 C0 46.9 0 23.8 0 0 Z " fill="#F3F3F9" transform="translate(702,604)"/>
<path d="M0 0 C1.18686401 -0.01546875 1.18686401 -0.01546875 2.39770508 -0.03125 C12.33657025 0.11704516 21.68705107 3.55509415 28.6875 10.75 C35.67636376 21.48289792 36.79805393 32.05198391 34.9765625 44.6171875 C32.64183224 54.31318494 28.0795158 61.01583764 19.5859375 66.24609375 C18.87695312 66.63925781 18.16796875 67.03242187 17.4375 67.4375 C16.81101562 67.79972656 16.18453125 68.16195312 15.5390625 68.53515625 C6.75358795 72.30735815 -5.4706832 71.56109191 -14.3203125 68.3984375 C-22.57330284 64.86144164 -26.77238566 60.69073964 -30.5625 52.4375 C-34.90456736 41.37751711 -34.97756807 29.55033953 -30.8203125 18.45703125 C-27.67494105 11.26164613 -22.31337011 5.43836756 -15.25 1.9375 C-10.23242204 0.18446422 -5.26371201 0.05709789 0 0 Z " fill="#0A0F32" transform="translate(582.5625,603.5625)"/>
<path d="M0 0 C6.27 0 12.54 0 19 0 C19.7425 2.145 20.485 4.29 21.25 6.5 C23.39214117 12.63091202 25.6348112 18.72160943 27.9296875 24.796875 C28.19031982 25.4875708 28.45095215 26.1782666 28.71948242 26.88989258 C30.03550106 30.37474854 31.35666096 33.85754895 32.68457031 37.33789062 C35.41738058 44.5363633 37.94538782 51.73665996 40.13623047 59.12402344 C41.03047739 62.10147645 42.01689756 65.05069269 43 68 C38.38 68 33.76 68 29 68 C26.24771897 62.12846713 24.61462649 57.45850596 23 51 C14.09 51 5.18 51 -4 51 C-4.33 52.98 -4.66 54.96 -5 57 C-6.20918245 60.7198143 -7.61606324 64.33926405 -9 68 C-13.95 68 -18.9 68 -24 68 C-20.25 56.48214286 -20.25 56.48214286 -18.1875 51.5 C-15.76501268 45.59637933 -13.7298366 39.56135723 -11.64404297 33.53295898 C-9.95525824 28.67101754 -8.20025962 23.85181608 -6.3125 19.0625 C-3.8576816 12.80352594 -1.91205068 6.44431896 0 0 Z " fill="#090E31" transform="translate(649,605)"/>
<path d="M0 0 C0.95583984 -0.02900391 1.91167969 -0.05800781 2.89648438 -0.08789062 C10.22819431 -0.15286147 16.61470314 1.00322438 22.22485352 6.02392578 C25.55744271 9.51589299 27.07135258 12.36897794 27.3125 17.3125 C22.69540116 18.61942821 18.07000688 19.06454576 13.3125 18.3125 C11.375 15.9375 11.375 15.9375 10.3125 13.3125 C6.64452576 10.86718384 4.79738996 11.07430361 0.4375 11.125 C-0.77679688 11.13144531 -1.99109375 11.13789062 -3.2421875 11.14453125 C-6.18524427 11.28801361 -8.82886918 11.63316758 -11.6875 12.3125 C-11.85031338 13.8923928 -11.96627979 15.47715741 -12.0625 17.0625 C-12.13210938 17.94421875 -12.20171875 18.8259375 -12.2734375 19.734375 C-11.89231976 22.56452113 -11.89231976 22.56452113 -9.18359375 24.546875 C-5.1714614 26.5731139 -1.78253084 27.2389038 2.625 27.8125 C12.41324924 29.33151066 20.39502939 31.82512415 27.3125 39.3125 C30.16246904 43.77332111 29.81783138 49.18699605 29.3125 54.3125 C27.69532554 59.79292457 25.32474483 63.51720961 20.3125 66.3125 C8.45733325 71.52468538 -5.05115014 72.2714621 -17.41796875 68.28515625 C-23.6127012 65.63027091 -26.8616206 61.29032182 -29.6875 55.3125 C-29.6875 53.9925 -29.6875 52.6725 -29.6875 51.3125 C-19.42055121 48.6059623 -19.42055121 48.6059623 -15.6875 50.3125 C-14.30626037 52.27972008 -12.97261874 54.28118328 -11.6875 56.3125 C-8.07019206 58.92113553 -4.03493479 58.64453024 0.25 58.625 C0.95318359 58.64111328 1.65636719 58.65722656 2.38085938 58.67382812 C6.87409901 58.67803922 9.75117158 58.08993071 13.3125 55.3125 C14.71185013 52.51379973 14.56515405 50.40751208 14.3125 47.3125 C12.02298857 44.21828285 9.51399808 43.58375592 5.8671875 42.6640625 C4.78953125 42.38046875 3.711875 42.096875 2.6015625 41.8046875 C0.3494013 41.23262825 -1.90319478 40.66227795 -4.15625 40.09375 C-12.08411202 38.00350609 -19.28498103 35.63203071 -25.25 29.8125 C-27.69297047 23.864398 -27.80866653 17.29964846 -26.0625 11.08984375 C-23.68099624 6.25241423 -19.41632764 3.54760994 -14.6875 1.3125 C-9.86188486 -0.13071698 -4.99758217 0.04954642 0 0 Z " fill="#0A0E32" transform="translate(452.6875,603.6875)"/>
<path d="M0 0 C5.18106543 -0.66013575 9.83666081 -0.93975977 15 0 C18.46762242 3.09797739 20.04770641 6.83408218 22 11 C23.2410586 13.05990138 24.51110842 15.10267459 25.8125 17.125 C26.37582031 18.03507813 26.93914063 18.94515625 27.51953125 19.8828125 C28.82844587 22.11285575 28.82844587 22.11285575 31 23 C31.23332031 22.19304688 31.46664062 21.38609375 31.70703125 20.5546875 C34.36104751 13.25814732 38.1296173 5.24910053 44 0 C48.90949853 -1.92683321 53.94290379 -1.04417776 59 0 C57.33739079 4.91049696 54.58264839 8.95596363 51.75 13.25 C51.25927002 14.00635742 50.76854004 14.76271484 50.26293945 15.54199219 C47.23697934 20.19116269 44.11822356 24.74471796 40.73046875 29.140625 C39.77102944 31.04870629 39.77102944 31.04870629 40.59765625 33.31640625 C42.29754288 36.56939264 44.22456949 39.6319262 46.25 42.6875 C47.05704725 43.92509218 47.86303082 45.16337862 48.66796875 46.40234375 C49.06290527 47.00933105 49.4578418 47.61631836 49.86474609 48.24169922 C51.46674965 50.72290989 53.02468337 53.22856796 54.5625 55.75 C55.03816406 56.52859375 55.51382813 57.3071875 56.00390625 58.109375 C57 60 57 60 57 62 C57.66 62 58.32 62 59 62 C59.99 63.98 60.98 65.96 62 68 C56.84616349 68.59696948 52.14009977 68.84516635 47 68 C43.5589928 65.25767446 41.95625722 61.88670629 40 58 C38.79067858 56.02934989 37.56160753 54.07067483 36.3125 52.125 C35.77238281 51.24070312 35.23226562 50.35640625 34.67578125 49.4453125 C32.98930392 46.9843922 31.13057638 45.0765092 29 43 C26.51910596 46.79053909 24.04057804 50.58261946 21.5625 54.375 C20.85544922 55.45523438 20.14839844 56.53546875 19.41992188 57.6484375 C18.40961914 59.1953125 18.40961914 59.1953125 17.37890625 60.7734375 C16.44413452 62.20308838 16.44413452 62.20308838 15.49047852 63.66162109 C14.00637435 65.90089194 14.00637435 65.90089194 13 68 C7.72 68 2.44 68 -3 68 C0.60614185 62.2902754 4.24042536 56.60999029 8 51 C8.65871094 50.00871094 9.31742188 49.01742187 9.99609375 47.99609375 C11.34655033 45.97699006 12.71418625 43.96928427 14.09765625 41.97265625 C14.74605469 41.01230469 15.39445313 40.05195312 16.0625 39.0625 C16.65160156 38.20785156 17.24070312 37.35320313 17.84765625 36.47265625 C19.27435838 33.41129202 19.07299722 32.16357865 18 29 C14.46425316 21.69908764 9.35923266 15.06262281 4.69580078 8.44604492 C4.23286621 7.78451416 3.76993164 7.1229834 3.29296875 6.44140625 C2.8755542 5.85045166 2.45813965 5.25949707 2.02807617 4.65063477 C1 3 1 3 0 0 Z " fill="#090E31" transform="translate(726,605)"/>
<path d="M0 0 C12.8563222 1.91339912 23.17561294 6.41048511 31.59375 16.71484375 C33.09573328 18.89611596 34.43389376 21.09088004 35.7109375 23.41015625 C36.11054688 24.12558594 36.51015625 24.84101562 36.921875 25.578125 C38.80314174 29.13385256 40.29608454 32.36533992 40.7109375 36.41015625 C40.8346875 37.56515625 40.9584375 38.72015625 41.0859375 39.91015625 C40.7109375 43.41015625 40.7109375 43.41015625 38.70361328 46.08911133 C34.94137693 49.00700829 32.02516399 49.10891077 27.453125 49.046875 C26.66825714 49.05725296 25.88338928 49.06763092 25.07473755 49.07832336 C22.57802113 49.10793269 20.08279729 49.10463879 17.5859375 49.09765625 C15.0823557 49.10655125 12.57917071 49.12249561 10.07571411 49.14912415 C8.52099263 49.16403243 6.96611617 49.16784632 5.41134644 49.15934753 C1.63145749 49.17937025 -0.06323063 49.25960167 -3.2890625 51.41015625 C-6.64821172 49.17072343 -7.10587886 48.14173542 -8.2890625 44.41015625 C-8.2890625 38.29816134 -8.23668563 32.18872986 -8.13647461 26.07763672 C-8.1132504 24.38632927 -8.09888851 22.6948763 -8.09350586 21.00341797 C-8.08420255 18.55736236 -8.04321051 16.1135528 -7.99609375 13.66796875 C-8.0000264 12.91573029 -8.00395905 12.16349182 -8.00801086 11.38845825 C-7.89720716 7.37958517 -7.42957522 5.58515781 -4.88793945 2.41967773 C-2.2890625 0.41015625 -2.2890625 0.41015625 0 0 Z " fill="#0D1235" transform="translate(352.2890625,581.58984375)"/>
<path d="M0 0 C1.82144531 -0.02513672 1.82144531 -0.02513672 3.6796875 -0.05078125 C9.67602162 0.58148527 13.26724393 3.84562455 17.125 8.3125 C21.49333076 17.20517334 22.61503602 25.43715354 19.625 35 C17.42678414 40.55463148 14.09912375 44.06450954 9.125 47.3125 C3.87505866 49.06248045 -2.02501163 49.44966424 -7.234375 47.37109375 C-12.94612958 43.94618828 -16.85206399 39.73275029 -18.875 33.3125 C-19.21239257 30.20509232 -19.24513837 27.12359519 -19.25 24 C-19.27449219 23.18337891 -19.29898438 22.36675781 -19.32421875 21.52539062 C-19.35231701 15.64817047 -18.19445129 11.21187893 -14.875 6.3125 C-10.01221115 1.80552497 -6.65135997 0.02109311 0 0 Z " fill="#F2F2F9" transform="translate(582.875,614.6875)"/>
<path d="M0 0 C19.47 0 38.94 0 59 0 C59 3.96 59 7.92 59 12 C51.74 12 44.48 12 37 12 C37 30.81 37 49.62 37 69 C32.05 69 27.1 69 22 69 C22 50.19 22 31.38 22 12 C14.74 12 7.48 12 0 12 C0 8.04 0 4.08 0 0 Z " fill="#04092C" transform="translate(487,604)"/>
<path d="M0 0 C6.27 0 12.54 0 19 0 C19.99 4.62 20.98 9.24 22 14 C20.35 15.32 18.7 16.64 17 18 C15.66701026 20.61818456 15.66701026 20.61818456 15 23 C12.35534962 19.8745041 11.15585285 16.91211733 10 13 C6.09783777 22.13565041 3.08302324 31.56594888 0 41 C1.32 41.33 2.64 41.66 4 42 C3.21625 42.391875 2.4325 42.78375 1.625 43.1875 C-1.18397808 44.76520698 -1.18397808 44.76520698 -2 47.5625 C-2.33 48.366875 -2.66 49.17125 -3 50 C-4.65816784 50.68753301 -6.32459336 51.35561283 -8 52 C-8.88693303 54.04105639 -8.88693303 54.04105639 -9 56 C-7.515 55.505 -7.515 55.505 -6 55 C-6.5648582 59.70715168 -7.47524303 63.42572908 -9 68 C-13.95 68 -18.9 68 -24 68 C-20.25 56.48214286 -20.25 56.48214286 -18.1875 51.5 C-15.76501268 45.59637933 -13.7298366 39.56135723 -11.64404297 33.53295898 C-9.95525824 28.67101754 -8.20025962 23.85181608 -6.3125 19.0625 C-3.8576816 12.80352594 -1.91205068 6.44431896 0 0 Z " fill="#0A0F31" transform="translate(649,605)"/>
<path d="M0 0 C4.91123589 -0.09898615 9.82188938 -0.17152247 14.73388672 -0.21972656 C16.40423702 -0.23982393 18.07451713 -0.26710683 19.74462891 -0.30175781 C22.1476372 -0.35036119 24.54971434 -0.37298656 26.953125 -0.390625 C27.69806213 -0.41127014 28.44299927 -0.43191528 29.21051025 -0.45318604 C32.73364481 -0.45470572 34.62994737 -0.2824779 37.46972656 1.88525391 C40.22924618 5.69874449 39.6237346 9.49741588 39 14 C36.01139002 25.8984035 27.96665767 35.24020672 18 42 C16.68 41.34 15.36 40.68 14 40 C14 38.68 14 37.36 14 36 C13.21753906 35.95101562 12.43507813 35.90203125 11.62890625 35.8515625 C10.61699219 35.77679687 9.60507812 35.70203125 8.5625 35.625 C7.55316406 35.55539062 6.54382813 35.48578125 5.50390625 35.4140625 C4.67761719 35.27742187 3.85132813 35.14078125 3 35 C1.72138385 32.44276771 1.88663391 30.63262898 1.90234375 27.7734375 C1.90556641 26.7421875 1.90878906 25.7109375 1.91210938 24.6484375 C1.92048828 23.56820312 1.92886719 22.48796875 1.9375 21.375 C1.94201172 20.28703125 1.94652344 19.1990625 1.95117188 18.078125 C1.9629821 15.38539338 1.98091795 12.69268991 2 10 C8.93 10 15.86 10 23 10 C22.67 9.01 22.34 8.02 22 7 C23.75 5.875 23.75 5.875 26 5 C28.25 5.875 28.25 5.875 30 7 C30.33 5.35 30.66 3.7 31 2 C20.77 1.67 10.54 1.34 0 1 C0 0.67 0 0.34 0 0 Z " fill="#0C1034" transform="translate(354,650)"/>
<path d="M0 0 C4.62 0 9.24 0 14 0 C14 22.77 14 45.54 14 69 C9.38 69 4.76 69 0 69 C0 46.23 0 23.46 0 0 Z " fill="#090E32" transform="translate(702,604)"/>
<path d="M0 0 C0.79481277 0.00424484 1.58962555 0.00848969 2.40852356 0.01286316 C4.94587146 0.02964945 7.48242363 0.06730051 10.01953125 0.10546875 C11.7402229 0.1205157 13.46092701 0.13420409 15.18164062 0.14648438 C19.39874387 0.17955268 23.61525267 0.2313338 27.83203125 0.29296875 C27.83203125 0.62296875 27.83203125 0.95296875 27.83203125 1.29296875 C16.61203125 1.62296875 5.39203125 1.95296875 -6.16796875 2.29296875 C-5.17796875 2.95296875 -4.18796875 3.61296875 -3.16796875 4.29296875 C-1.02146554 5.87127993 0.95347775 7.41441525 2.83203125 9.29296875 C4.46459883 9.45011529 6.10338463 9.54382289 7.7421875 9.609375 C8.73154297 9.65126953 9.72089844 9.69316406 10.74023438 9.73632812 C11.78115234 9.77564453 12.82207031 9.81496094 13.89453125 9.85546875 C14.93931641 9.89865234 15.98410156 9.94183594 17.06054688 9.98632812 C19.65090009 10.092781 22.24135311 10.19479635 24.83203125 10.29296875 C24.86090109 14.27212034 24.87878531 18.25124528 24.89453125 22.23046875 C24.90291016 23.36677734 24.91128906 24.50308594 24.91992188 25.67382812 C24.92314453 26.75341797 24.92636719 27.83300781 24.9296875 28.9453125 C24.93492432 29.94554443 24.94016113 30.94577637 24.94555664 31.97631836 C24.83203125 34.29296875 24.83203125 34.29296875 23.83203125 35.29296875 C19.98623977 35.46777745 16.57366339 35.15642232 12.83203125 34.29296875 C9.63640245 33.59148926 7.15434206 33.29296875 3.83203125 33.29296875 C5.10666326 35.84223277 6.26620168 36.16098511 8.83203125 37.29296875 C11.77932662 38.45108263 11.77932662 38.45108263 14.83203125 38.29296875 C14.83203125 39.61296875 14.83203125 40.93296875 14.83203125 42.29296875 C15.82203125 42.29296875 16.81203125 42.29296875 17.83203125 42.29296875 C18.16203125 43.61296875 18.49203125 44.93296875 18.83203125 46.29296875 C7.33164268 43.13036189 -1.27059259 35.46507023 -7.16796875 25.29296875 C-9.93459995 19.81332323 -11.31784846 14.8628365 -11.41796875 8.73046875 C-11.44375 7.78042969 -11.46953125 6.83039062 -11.49609375 5.8515625 C-11.16796875 3.29296875 -11.16796875 3.29296875 -10.15795898 1.65136719 C-7.01392724 -0.49479802 -3.67077417 -0.07362667 0 0 Z " fill="#0F1334" transform="translate(289.16796875,649.70703125)"/>
<path d="M0 0 C2.5 2.5 2.5 2.5 4 5 C3.34 5.66 2.68 6.32 2 7 C2.495 7.99 2.495 7.99 3 9 C2.91219597 11.04498425 2.75758462 13.08744948 2.5625 15.125 C2.46066406 16.22070312 2.35882813 17.31640625 2.25390625 18.4453125 C2.17011719 19.28835938 2.08632813 20.13140625 2 21 C-2.46428571 16.75 -2.46428571 16.75 -3 13 C-3.95168683 15.85506049 -4.1900946 17.90937282 -4.31640625 20.88671875 C-4.37924805 22.2934082 -4.37924805 22.2934082 -4.44335938 23.72851562 C-4.48267578 24.70498047 -4.52199219 25.68144531 -4.5625 26.6875 C-4.62727539 28.16959961 -4.62727539 28.16959961 -4.69335938 29.68164062 C-4.79941654 32.12095546 -4.90147714 34.56037113 -5 37 C-8.97915159 37.02886984 -12.95827653 37.04675406 -16.9375 37.0625 C-18.64196289 37.07506836 -18.64196289 37.07506836 -20.38085938 37.08789062 C-21.46044922 37.09111328 -22.54003906 37.09433594 -23.65234375 37.09765625 C-25.15269165 37.10551147 -25.15269165 37.10551147 -26.68334961 37.11352539 C-29 37 -29 37 -30 36 C-30.55461992 32.75151187 -30.42503227 30.69735833 -28.6953125 27.859375 C-26.90373798 25.47632373 -25.11126133 23.11126133 -23 21 C-22.95919217 19.00041636 -22.95745644 16.99954746 -23 15 C-23.66 15 -24.32 15 -25 15 C-25.33 16.32 -25.66 17.64 -26 19 C-30.875 18.125 -30.875 18.125 -32 17 C-33.01111093 20.04913228 -33.01111093 20.04913228 -32 23 C-32.66 23 -33.32 23 -34 23 C-34 23.66 -34 24.32 -34 25 C-34.99 25 -35.98 25 -37 25 C-37.33 25.99 -37.66 26.98 -38 28 C-38.66 28 -39.32 28 -40 28 C-35.60837962 16.42393154 -27.40231569 7.6833811 -16.0625 2.5 C-10.92938636 0.42756533 -5.54425968 -1.06795166 0 0 Z " fill="#121638" transform="translate(320,582)"/>
<path d="M0 0 C1 1 1 1 1.11352539 3.22485352 C1.10828857 4.18319092 1.10305176 5.14152832 1.09765625 6.12890625 C1.09443359 7.16337891 1.09121094 8.19785156 1.08789062 9.26367188 C1.07951172 10.35228516 1.07113281 11.44089844 1.0625 12.5625 C1.05798828 13.65498047 1.05347656 14.74746094 1.04882812 15.87304688 C1.03699826 18.58208495 1.02051543 21.29101599 1 24 C-2.81248426 24.02887236 -6.6249407 24.04675492 -10.4375 24.0625 C-11.52611328 24.07087891 -12.61472656 24.07925781 -13.73632812 24.08789062 C-14.77080078 24.09111328 -15.80527344 24.09433594 -16.87109375 24.09765625 C-17.82943115 24.10289307 -18.78776855 24.10812988 -19.77514648 24.11352539 C-22 24 -22 24 -23 23 C-23.52321593 19.93544954 -23.45794885 17.80795261 -21.90625 15.0703125 C-16.22334499 7.30166044 -10.35543404 -0.69036227 0 0 Z " fill="#F1F3F9" transform="translate(313,595)"/>
<path d="M0 0 C6.08783592 0.76097949 10.65952744 4.49754243 14.8125 8.875 C15.369375 9.720625 15.92625 10.56625 16.5 11.4375 C16.86996094 11.99566406 17.23992187 12.55382812 17.62109375 13.12890625 C19.82009841 16.65187911 21.11365465 19.26464836 20.5 23.4375 C19.5 24.4375 19.5 24.4375 17.27514648 24.55102539 C16.31680908 24.54578857 15.35847168 24.54055176 14.37109375 24.53515625 C12.81938477 24.53032227 12.81938477 24.53032227 11.23632812 24.52539062 C10.14771484 24.51701172 9.05910156 24.50863281 7.9375 24.5 C6.2987793 24.49323242 6.2987793 24.49323242 4.62695312 24.48632812 C1.91791505 24.47449826 -0.79101599 24.45801543 -3.5 24.4375 C-3.52887236 20.62501574 -3.54675492 16.8125593 -3.5625 13 C-3.57087891 11.91138672 -3.57925781 10.82277344 -3.58789062 9.70117188 C-3.59111328 8.66669922 -3.59433594 7.63222656 -3.59765625 6.56640625 C-3.60289307 5.60806885 -3.60812988 4.64973145 -3.61352539 3.66235352 C-3.45177216 0.49233815 -3.13645003 0.54887875 0 0 Z " fill="#F2F4F9" transform="translate(359.5,594.5625)"/>
<path d="M0 0 C0.9583374 0.00523682 1.9166748 0.01047363 2.90405273 0.01586914 C4.45576172 0.02070312 4.45576172 0.02070312 6.03881836 0.02563477 C7.12743164 0.03401367 8.21604492 0.04239258 9.33764648 0.05102539 C10.97636719 0.05779297 10.97636719 0.05779297 12.64819336 0.06469727 C15.35723144 0.07652713 18.06616248 0.09300996 20.77514648 0.11352539 C20.80401885 3.92600965 20.8219014 7.73846609 20.83764648 11.55102539 C20.84602539 12.63963867 20.8544043 13.72825195 20.86303711 14.84985352 C20.86787109 16.4015625 20.86787109 16.4015625 20.87280273 17.98461914 C20.88065796 19.42212524 20.88065796 19.42212524 20.88867188 20.88867188 C20.77514648 23.11352539 20.77514648 23.11352539 19.77514648 24.11352539 C16.72646705 24.63403164 14.58808255 24.5594883 11.84545898 23.05493164 C5.77503563 18.6969818 -0.26350864 13.09889872 -3.22485352 6.11352539 C-3.41235352 3.42602539 -3.41235352 3.42602539 -3.22485352 1.11352539 C-2.22485352 0.11352539 -2.22485352 0.11352539 0 0 Z " fill="#F0F2F9" transform="translate(293.224853515625,660.886474609375)"/>
<path d="M0 0 C3.81248426 -0.02887236 7.6249407 -0.04675492 11.4375 -0.0625 C12.52611328 -0.07087891 13.61472656 -0.07925781 14.73632812 -0.08789062 C15.77080078 -0.09111328 16.80527344 -0.09433594 17.87109375 -0.09765625 C18.82943115 -0.10289307 19.78776855 -0.10812988 20.77514648 -0.11352539 C23 0 23 0 24 1 C23.86720728 7.50684333 21.31833181 11.25849091 17 16 C8.71710972 23.93266236 8.71710972 23.93266236 3.8125 24.125 C2.4203125 24.063125 2.4203125 24.063125 1 24 C-0.25248502 21.49502996 -0.11374406 19.79146726 -0.09765625 16.9921875 C-0.09443359 16.00605469 -0.09121094 15.01992188 -0.08789062 14.00390625 C-0.07951172 12.97136719 -0.07113281 11.93882812 -0.0625 10.875 C-0.05798828 9.83472656 -0.05347656 8.79445313 -0.04882812 7.72265625 C-0.03701952 5.14838038 -0.02055075 2.57421854 0 0 Z " fill="#F0F2F8" transform="translate(356,661)"/>
<path d="M0 0 C19.47 0 38.94 0 59 0 C59 3.96 59 7.92 59 12 C51.74 12 44.48 12 37 12 C37 30.81 37 49.62 37 69 C36.67 69 36.34 69 36 69 C36 49.86 36 30.72 36 11 C43.26 11 50.52 11 58 11 C58 7.7 58 4.4 58 1 C40.675 1.495 40.675 1.495 23 2 C22.67 3.32 22.34 4.64 22 6 C21.01 6.66 20.02 7.32 19 8 C19.33 8.66 19.66 9.32 20 10 C20.99 10.33 21.98 10.66 23 11 C23 30.14 23 49.28 23 69 C22.67 69 22.34 69 22 69 C22 50.19 22 31.38 22 12 C14.74 12 7.48 12 0 12 C0 8.04 0 4.08 0 0 Z " fill="#424661" transform="translate(487,604)"/>
<path d="M0 0 C7.30098648 -0.53098083 13.20119283 0.71776703 18.8671875 5.61328125 C22.17825596 9.18574985 23.75584154 11.9947515 24 17 C19.38290116 18.30692821 14.75750688 18.75204576 10 18 C8.0625 15.625 8.0625 15.625 7 13 C3.33202576 10.55468384 1.48488996 10.76180361 -2.875 10.8125 C-4.08929688 10.81894531 -5.30359375 10.82539062 -6.5546875 10.83203125 C-9.9205233 10.89686095 -9.9205233 10.89686095 -12.8203125 11.63671875 C-13.53960937 11.75660156 -14.25890625 11.87648438 -15 12 C-15.66 11.34 -16.32 10.68 -17 10 C-12.45415165 8.48471722 -7.82016351 8.60792197 -3.0546875 8.37890625 C-2.04664063 8.25386719 -1.03859375 8.12882813 0 8 C0.33 7.34 0.66 6.68 1 6 C-0.32 5.34 -1.64 4.68 -3 4 C-1.68 4 -0.36 4 1 4 C0.67 2.68 0.34 1.36 0 0 Z " fill="#0C1031" transform="translate(456,604)"/>
<path d="M0 0 C2.40230805 2.91433777 3.69263318 5.50318866 4.82421875 9.09765625 C5.13037109 10.06380859 5.43652344 11.02996094 5.75195312 12.02539062 C6.06068359 13.02763672 6.36941406 14.02988281 6.6875 15.0625 C7.00783203 16.06861328 7.32816406 17.07472656 7.65820312 18.11132812 C10 25.58610408 10 25.58610408 10 29 C3.73 29 -2.54 29 -9 29 C-6.75 18.875 -6.75 18.875 -5.2734375 14.74609375 C-4.809375 13.43608398 -4.809375 13.43608398 -4.3359375 12.09960938 C-4.01882813 11.22111328 -3.70171875 10.34261719 -3.375 9.4375 C-3.05015625 8.52419922 -2.7253125 7.61089844 -2.390625 6.66992188 C-1.59846371 4.44488059 -0.8015341 2.22167825 0 0 Z " fill="#E7E9F3" transform="translate(658,616)"/>
<path d="M0 0 C0.99 0.33 1.98 0.66 3 1 C2.34 3.31 1.68 5.62 1 8 C1.99 8.33 2.98 8.66 4 9 C4.33 9.99 4.66 10.98 5 12 C5.33 12 5.66 12 6 12 C6.33 20.25 6.66 28.5 7 37 C4.69 36.67 2.38 36.34 0 36 C-0.495 38.475 -0.495 38.475 -1 41 C-3.43662175 38.56337825 -3.25406523 37.22404636 -3.30354309 33.89593506 C-3.30263168 33.20324524 -3.30172028 32.51055542 -3.30078125 31.796875 C-3.30506638 31.08146545 -3.3093515 30.36605591 -3.31376648 29.62896729 C-3.31951451 28.1125189 -3.32000655 26.59604293 -3.31567383 25.07958984 C-3.31253082 22.77262397 -3.33590538 20.46696187 -3.36132812 18.16015625 C-3.36360297 16.68489744 -3.36430376 15.20963521 -3.36328125 13.734375 C-3.372491 13.0497821 -3.38170074 12.36518921 -3.39118958 11.65985107 C-3.34731837 7.05511277 -2.32188009 3.95536935 0 0 Z " fill="#05092D" transform="translate(349,583)"/>
<path d="M0 0 C11.55 0 23.1 0 35 0 C33.99489025 3.01532925 33.53844009 4.18682851 31 6 C28.3125 5.6875 28.3125 5.6875 26 5 C25.34 6.32 24.68 7.64 24 9 C16.08 9.33 8.16 9.66 0 10 C-0.33 8.02 -0.66 6.04 -1 4 C-0.01 3.67 0.98 3.34 2 3 C2.33 2.67 2.66 2.34 3 2 C2.01 1.34 1.02 0.68 0 0 Z " fill="#03092D" transform="translate(353,651)"/>
<path d="M0 0 C4.91123589 -0.09898615 9.82188938 -0.17152247 14.73388672 -0.21972656 C16.40423702 -0.23982393 18.07451713 -0.26710683 19.74462891 -0.30175781 C22.1476372 -0.35036119 24.54971434 -0.37298656 26.953125 -0.390625 C27.69806213 -0.41127014 28.44299927 -0.43191528 29.21051025 -0.45318604 C32.73364481 -0.45470572 34.62994737 -0.2824779 37.46972656 1.88525391 C40.21706809 5.68191509 39.66237871 9.51620565 39 14 C37.909381 17.45989474 36.55991508 20.72696389 35 24 C34.67 24 34.34 24 34 24 C34 21.03 34 18.06 34 15 C33.34 15 32.68 15 32 15 C31.67 16.32 31.34 17.64 31 19 C31 17.68 31 16.36 31 15 C30.34 15 29.68 15 29 15 C28.34 16.32 27.68 17.64 27 19 C26.34 16.69 25.68 14.38 25 12 C13.615 11.505 13.615 11.505 2 11 C2 10.67 2 10.34 2 10 C8.93 10 15.86 10 23 10 C22.67 9.01 22.34 8.02 22 7 C23.75 5.875 23.75 5.875 26 5 C28.25 5.875 28.25 5.875 30 7 C30.33 5.35 30.66 3.7 31 2 C20.77 1.67 10.54 1.34 0 1 C0 0.67 0 0.34 0 0 Z " fill="#171B3B" transform="translate(354,650)"/>
<path d="M0 0 C4.95 0 9.9 0 15 0 C15.99 4.62 16.98 9.24 18 14 C16.35 15.32 14.7 16.64 13 18 C11.66701026 20.61818456 11.66701026 20.61818456 11 23 C7.25474201 19.25474201 7.31090051 15.01729091 7 10 C5.02 10.33 3.04 10.66 1 11 C1.33 8.36 1.66 5.72 2 3 C1.01 2.67 0.02 2.34 -1 2 C-0.67 1.34 -0.34 0.68 0 0 Z " fill="#050A2F" transform="translate(653,605)"/>
<path d="M0 0 C2.19262611 2.19262611 3.41908635 4.55401264 4.9140625 7.24609375 C6.31353517 9.50639314 8.02357963 11.23533895 10 13 C9.38125 13.226875 8.7625 13.45375 8.125 13.6875 C5.38589791 15.37929835 4.94975528 16.99244161 4 20 C5.65 20.33 7.3 20.66 9 21 C9 22.32 9 23.64 9 25 C3.34240312 23.70346738 -1.49244344 21.74614498 -6 18 C-8 14.6875 -8 14.6875 -9 12 C-8.01 11.67 -7.02 11.34 -6 11 C-6 10.01 -6 9.02 -6 8 C-5.34 8 -4.68 8 -4 8 C-3.67 7.01 -3.34 6.02 -3 5 C-2.02308143 3.31970006 -1.02611949 1.65071396 0 0 Z " fill="#0E1235" transform="translate(564,648)"/>
<path d="M0 0 C1.32 0.66 2.64 1.32 4 2 C4 12.89 4 23.78 4 35 C3.67 35 3.34 35 3 35 C2.67 28.07 2.34 21.14 2 14 C1.67 16.97 1.34 19.94 1 23 C0.01 23.33 -0.98 23.66 -2 24 C-2.33 24.66 -2.66 25.32 -3 26 C-3 25.01 -3 24.02 -3 23 C-4.32 23.33 -5.64 23.66 -7 24 C-7 17.07 -7 10.14 -7 3 C-6.67 3 -6.34 3 -6 3 C-5.67 6.63 -5.34 10.26 -5 14 C-5 10.04 -5 6.08 -5 2 C-4.01 1.67 -3.02 1.34 -2 1 C-2 1.66 -2 2.32 -2 3 C-1.34 3 -0.68 3 0 3 C0 2.01 0 1.02 0 0 Z " fill="#161A3D" transform="translate(321,658)"/>
<path d="M0 0 C5.60461531 0.42089996 10.72086547 0.91613111 16 3 C16 3.99 16 4.98 16 6 C15.34 6.66 14.68 7.32 14 8 C14 8.99 14 9.98 14 11 C13.34 11 12.68 11 12 11 C12 11.66 12 12.32 12 13 C10.35 13.33 8.7 13.66 7 14 C6.67 21.59 6.34 29.18 6 37 C5.67 37 5.34 37 5 37 C4.98018066 36.31373535 4.96036133 35.6274707 4.93994141 34.92041016 C4.84489055 31.82154221 4.73513153 28.72336706 4.625 25.625 C4.5940625 24.54476562 4.563125 23.46453125 4.53125 22.3515625 C4.49257813 21.3203125 4.45390625 20.2890625 4.4140625 19.2265625 C4.3826416 18.27346191 4.3512207 17.32036133 4.31884766 16.33837891 C4.21444204 13.81104824 4.21444204 13.81104824 2 12 C2 11.34 2 10.68 2 10 C1.34 9.67 0.68 9.34 0 9 C0.185625 7.88625 0.37125 6.7725 0.5625 5.625 C1.31680657 2.17431139 1.31680657 2.17431139 0 0 Z " fill="#101539" transform="translate(350,582)"/>
<path d="M0 0 C0.33 0 0.66 0 1 0 C1 2.31 1 4.62 1 7 C4.78870766 7.31277015 4.78870766 7.31277015 7 5.9375 C9.44895901 4.78955046 10.50702038 5.10965014 13 6 C12.236875 6.845625 11.47375 7.69125 10.6875 8.5625 C7.9508582 11.82003668 6.50585211 15.03723128 5 19 C4.67 18.01 4.34 17.02 4 16 C4.33 15.34 4.66 14.68 5 14 C4.34 14 3.68 14 3 14 C2.67 14.99 2.34 15.98 2 17 C1.01 17 0.02 17 -1 17 C-0.67 14.69 -0.34 12.38 0 10 C-6.93 10 -13.86 10 -21 10 C-21 28.48 -21 46.96 -21 66 C-21.33 66 -21.66 66 -22 66 C-22 47.19 -22 28.38 -22 9 C-14.74 9 -7.48 9 0 9 C0 6.03 0 3.06 0 0 Z " fill="#E9EAF7" transform="translate(546,607)"/>
<path d="M0 0 C3.42079411 3.04070588 5.52458844 6.35328908 7.75390625 10.29296875 C8.97657912 12.31430404 8.97657912 12.31430404 12 13 C11.67 13.66 11.34 14.32 11 15 C10.01 15 9.02 15 8 15 C7.01 15.495 7.01 15.495 6 16 C5.34786708 18.02463255 5.34786708 18.02463255 5 20 C4.67 19.67 4.34 19.34 4 19 C3.38125 20.134375 2.7625 21.26875 2.125 22.4375 C0.25 25.875 0.25 25.875 -2 27 C-1.5978125 25.4840625 -1.5978125 25.4840625 -1.1875 23.9375 C-0.96374708 19.23868875 -1.9663789 17.9392164 -4.87109375 14.48046875 C-6 13 -6 13 -6 11 C-5.34 11 -4.68 11 -4 11 C-4 10.34 -4 9.68 -4 9 C-3.38125 8.938125 -2.7625 8.87625 -2.125 8.8125 C0.27761141 8.171081 0.27761141 8.171081 1.25 5.4375 C1.4975 4.633125 1.745 3.82875 2 3 C1.01 3.33 0.02 3.66 -1 4 C-0.67 2.68 -0.34 1.36 0 0 Z " fill="#111636" transform="translate(746,615)"/>
<path d="M0 0 C1.8125 3.0625 1.8125 3.0625 3 6 C2.01 6 1.02 6 0 6 C-0.33 6.66 -0.66 7.32 -1 8 C-1.495 8.474375 -1.99 8.94875 -2.5 9.4375 C-4.25083992 11.0377353 -4.25083992 11.0377353 -5 14 C-3.35 13.67 -1.7 13.34 0 13 C-0.66 14.32 -1.32 15.64 -2 17 C-6.87315408 15.85337551 -8.9957405 13.01239541 -11.7734375 9.109375 C-13.32377452 6.44319032 -13.84660078 4.06798448 -14 1 C-3.66468843 -1.72455926 -3.66468843 -1.72455926 0 0 Z " fill="#0D1236" transform="translate(437,654)"/>
<path d="M0 0 C1.01513672 -0.01836914 1.01513672 -0.01836914 2.05078125 -0.03710938 C5.76357044 -0.04809396 7.32983076 0.07405384 10.5 2.1875 C10.025625 2.64125 9.55125 3.095 9.0625 3.5625 C7.40972192 5.12008204 7.40972192 5.12008204 6.5 7.1875 C5.84 7.1875 5.18 7.1875 4.5 7.1875 C4.17 7.8475 3.84 8.5075 3.5 9.1875 C4.82 9.8475 6.14 10.5075 7.5 11.1875 C6.04077307 11.07340407 4.58259402 10.94584456 3.125 10.8125 C2.31289063 10.74289062 1.50078125 10.67328125 0.6640625 10.6015625 C-1.5 10.1875 -1.5 10.1875 -3.5 8.1875 C-4.49 8.8475 -5.48 9.5075 -6.5 10.1875 C-7.16 9.8575 -7.82 9.5275 -8.5 9.1875 C-8.5 5.1875 -8.5 5.1875 -6.5 3.1875 C-7.82 2.5275 -9.14 1.8675 -10.5 1.1875 C-6.94709436 0.00319812 -3.69749544 0.00352142 0 0 Z " fill="#05092F" transform="translate(584.5,603.8125)"/>
<path d="M0 0 C0.12375 0.78375 0.2475 1.5675 0.375 2.375 C0.79117993 5.14057822 0.79117993 5.14057822 3 7 C3 7.66 3 8.32 3 9 C1.84242188 9.06058594 0.68484375 9.12117187 -0.5078125 9.18359375 C-2.04688457 9.26805502 -3.58594655 9.35270018 -5.125 9.4375 C-5.88554687 9.47681641 -6.64609375 9.51613281 -7.4296875 9.55664062 C-11.68509203 9.79509002 -15.80370826 10.20230237 -20 11 C-19.67 10.01 -19.34 9.02 -19 8 C-18.34 8 -17.68 8 -17 8 C-16.67 7.01 -16.34 6.02 -16 5 C-14.68 5 -13.36 5 -12 5 C-12 4.34 -12 3.68 -12 3 C-8.4404533 -0.85617559 -4.90086449 -0.24504322 0 0 Z " fill="#04092D" transform="translate(456,604)"/>
<path d="M0 0 C-0.57234375 0.27585937 -1.1446875 0.55171875 -1.734375 0.8359375 C-3.98964267 1.99467848 -6.10856378 3.26875706 -8.25 4.625 C-8.95640625 5.07101562 -9.6628125 5.51703125 -10.390625 5.9765625 C-10.92171875 6.31429687 -11.4528125 6.65203125 -12 7 C-11.67 8.65 -11.34 10.3 -11 12 C-12.98 12.99 -14.96 13.98 -17 15 C-17.33 14.34 -17.66 13.68 -18 13 C-18.99 13 -19.98 13 -21 13 C-21.99 12.67 -22.98 12.34 -24 12 C-24 11.34 -24 10.68 -24 10 C-22.5390625 8.7109375 -22.5390625 8.7109375 -20.625 7.375 C-19.68527344 6.70597656 -19.68527344 6.70597656 -18.7265625 6.0234375 C-17 5 -17 5 -15 5 C-14.67 4.01 -14.34 3.02 -14 2 C-9.18912503 0.45073518 -5.08003559 -0.25400178 0 0 Z " fill="#06092E" transform="translate(319,583)"/>
<path d="M0 0 C0 1.8542837 -0.01728701 3.70876759 -0.0625 5.5625 C-0.17218753 8.00907507 -0.17218753 8.00907507 1 10 C1.99 10.66 2.98 11.32 4 12 C2.02 13.65 0.04 15.3 -2 17 C-3.32 16.34 -4.64 15.68 -6 15 C-6 13.68 -6 12.36 -6 11 C-7.32 11 -8.64 11 -10 11 C-10 10.01 -10 9.02 -10 8 C-8.03501678 6.61558 -6.02951535 5.28796166 -4 4 C-2.63113049 2.70317626 -1.2830709 1.38176866 0 0 Z M-3 8 C-3.33 8.66 -3.66 9.32 -4 10 C-3.34 10 -2.68 10 -2 10 C-2.33 9.34 -2.66 8.68 -3 8 Z " fill="#0C1135" transform="translate(374,675)"/>
<path d="M0 0 C0.33 0 0.66 0 1 0 C2.06351895 12.01945231 2.06351895 12.01945231 -0.41796875 16.640625 C-3.29446371 19.95258082 -5.99079726 22.19053682 -10 24 C-11.65 22.02 -13.3 20.04 -15 18 C-13.02 18.33 -11.04 18.66 -9 19 C-8.79375 18.21625 -8.5875 17.4325 -8.375 16.625 C-7 14 -7 14 -3.875 12.6875 C-2.451875 12.3471875 -2.451875 12.3471875 -1 12 C-0.67 8.04 -0.34 4.08 0 0 Z " fill="#E1E5EE" transform="translate(344,608)"/>
<path d="M0 0 C1.32 0 2.64 0 4 0 C3.34 1.65 2.68 3.3 2 5 C2.66 5.33 3.32 5.66 4 6 C3.67 6.66 3.34 7.32 3 8 C3.66 8 4.32 8 5 8 C5 8.66 5 9.32 5 10 C6.65 10 8.3 10 10 10 C9.67 10.99 9.34 11.98 9 13 C6.69 12.34 4.38 11.68 2 11 C2 10.34 2 9.68 2 9 C1.071875 9.20625 0.14375 9.4125 -0.8125 9.625 C-4 10 -4 10 -7 8 C-6.34 8 -5.68 8 -5 8 C-5 7.01 -5 6.02 -5 5 C-4.360625 4.731875 -3.72125 4.46375 -3.0625 4.1875 C-0.66868314 3.11332248 -0.66868314 3.11332248 0 0 Z " fill="#050B2C" transform="translate(454,633)"/>
<path d="M0 0 C1.98 0.66 3.96 1.32 6 2 C4.35 5.3 2.7 8.6 1 12 C-2 11 -2 11 -3.6875 8.625 C-5 6 -5 6 -5 3 C-4.01 2.67 -3.02 2.34 -2 2 C-1.34 1.34 -0.68 0.68 0 0 Z " fill="#EBECF7" transform="translate(756,616)"/>
<path d="M0 0 C4.95962253 2.2362492 8.33054224 5.22790565 11 10 C11.83049901 14.70447746 11.66611417 19.24181066 11.4375 24 C11.40591797 25.25167969 11.37433594 26.50335937 11.34179688 27.79296875 C11.2597348 30.86443499 11.14497609 33.93096763 11 37 C10.67 37 10.34 37 10 37 C9.67 28.75 9.34 20.5 9 12 C8.01 11.67 7.02 11.34 6 11 C5.87625 10.401875 5.7525 9.80375 5.625 9.1875 C4.69685674 5.93899858 2.746422 4.830948 0 3 C-0.99 3 -1.98 3 -3 3 C-2.01 2.01 -1.02 1.02 0 0 Z " fill="#E1E5F3" transform="translate(334,648)"/>
<path d="M0 0 C5.625 -0.25 5.625 -0.25 9 2 C9.3125 5 9.3125 5 9 8 C7 10 7 10 4 11 C0 4.5 0 4.5 0 0 Z " fill="#06092E" transform="translate(423,655)"/>
<path d="M0 0 C1.32 1.32 2.64 2.64 4 4 C3.360625 4.309375 2.72125 4.61875 2.0625 4.9375 C0.06389179 5.8345163 0.06389179 5.8345163 -1 7 C-1.36799223 8.28222292 -1.69552591 9.57622773 -2 10.875 C-2.57582486 13.31325839 -3.2056017 15.61680509 -4 18 C-4.81360995 16.70903219 -5.62585046 15.41720125 -6.4375 14.125 C-6.88996094 13.40570312 -7.34242188 12.68640625 -7.80859375 11.9453125 C-9 10 -9 10 -10 8 C-9.34 8 -8.68 8 -8 8 C-7.34 7.34 -6.68 6.68 -6 6 C-5.34 5.67 -4.68 5.34 -4 5 C-4 3.68 -4 2.36 -4 1 C-2.68 1.33 -1.36 1.66 0 2 C0 1.34 0 0.68 0 0 Z " fill="#181B3C" transform="translate(765,638)"/>
<path d="M0 0 C4.25320385 -0.35443365 5.67612238 0.50709178 9 3 C11.66761764 3.25124826 11.66761764 3.25124826 14 3 C14 4.32 14 5.64 14 7 C14.99 7 15.98 7 17 7 C17.33 8.32 17.66 9.64 18 11 C10.96790899 9.06617497 4.86086845 5.46847701 0 0 Z " fill="#0C1233" transform="translate(290,685)"/>
<path d="M0 0 C3.44852854 1.14950951 4.3569424 1.80036151 6 5 C5.1875 8.25 5.1875 8.25 4 11 C2.02 11 0.04 11 -2 11 C-1.67 10.34 -1.34 9.68 -1 9 C-1.66 8.34 -2.32 7.68 -3 7 C-2.34 7 -1.68 7 -1 7 C-1.20625 6.401875 -1.4125 5.80375 -1.625 5.1875 C-2 3 -2 3 0 0 Z M-4 8 C-3.67 8.66 -3.34 9.32 -3 10 C-3.66 9.67 -4.32 9.34 -5 9 C-4.67 8.67 -4.34 8.34 -4 8 Z " fill="#06082C" transform="translate(375,675)"/>
<path d="M0 0 C0.33 0.66 0.66 1.32 1 2 C-0.216875 2.309375 -1.43375 2.61875 -2.6875 2.9375 C-3.41710937 3.12441406 -4.14671875 3.31132813 -4.8984375 3.50390625 C-7 4 -7 4 -9.8125 4.375 C-12.6796037 5.19417248 -13.39793509 6.55875823 -15 9 C-17 10 -19 11 -21 12 C-19.63600763 7.53602498 -17.90097811 5.54411616 -14 3 C-9.29201895 0.72852048 -5.29330241 -0.39699768 0 0 Z " fill="#1A1C3B" transform="translate(448,604)"/>
<path d="M0 0 C4.03384128 2.07143201 5.92856799 3.96615872 8 8 C7.01 8 6.02 8 5 8 C3.57055055 10.35438733 2.91338739 11.48032433 3.375 14.25 C3.58125 14.8275 3.7875 15.405 4 16 C3.01 16.33 2.02 16.66 1 17 C-0.125 14.75 -0.125 14.75 -1 12 C-0.125 9.9375 -0.125 9.9375 1 8 C1 6.68 1 5.36 1 4 C0.34 3.34 -0.32 2.68 -1 2 C-0.67 1.34 -0.34 0.68 0 0 Z " fill="#171A3A" transform="translate(376,592)"/>
<path d="M0 0 C0.66 0.33 1.32 0.66 2 1 C1.67 3.31 1.34 5.62 1 8 C-0.32 7.34 -1.64 6.68 -3 6 C-4.01111093 9.04913228 -4.01111093 9.04913228 -3 12 C-3.66 12 -4.32 12 -5 12 C-5 12.66 -5 13.32 -5 14 C-5.99 14 -6.98 14 -8 14 C-8.33 14.99 -8.66 15.98 -9 17 C-9.66 17 -10.32 17 -11 17 C-9.69933317 13.47761996 -8.16259119 10.48505871 -6.0625 7.375 C-5.55847656 6.61960937 -5.05445313 5.86421875 -4.53515625 5.0859375 C-3.14371097 3.19527139 -1.70925077 1.60210371 0 0 Z " fill="#1B203D" transform="translate(291,593)"/>
<path d="M0 0 C4.06540996 1.35513665 4.97300269 3.30796918 7 7 C6.9375 9.3125 6.9375 9.3125 6 11 C3 12 3 12 0 11 C-1.28571429 3.57142857 -1.28571429 3.57142857 0 0 Z " fill="#F3F2F7" transform="translate(763,660)"/>
<path d="M0 0 C3.08089673 2.77280706 4.68775452 5.06326356 6 9 C5.01 9 4.02 9 3 9 C2.67 8.34 2.34 7.68 2 7 C1.67 9.64 1.34 12.28 1 15 C-1.38601036 13.13268754 -1.98586422 12.05536515 -2.75 9.0625 C-2.97409129 6.31738172 -2.88936059 4.56926391 -2 2 C-1.34 2 -0.68 2 0 2 C0 1.34 0 0.68 0 0 Z " fill="#0B0F33" transform="translate(740,605)"/>
<path d="M0 0 C0.8971875 0.7734375 0.8971875 0.7734375 1.8125 1.5625 C2.534375 2.036875 3.25625 2.51125 4 3 C4.99 2.67 5.98 2.34 7 2 C7.33 3.65 7.66 5.3 8 7 C8.99 7.33 9.98 7.66 11 8 C9.18757948 8.02687279 7.37504767 8.04633715 5.5625 8.0625 C4.55316406 8.07410156 3.54382813 8.08570313 2.50390625 8.09765625 C0 8 0 8 -1 7 C-1.125 4 -1.125 4 -1 1 C-0.67 0.67 -0.34 0.34 0 0 Z " fill="#060A30" transform="translate(773,665)"/>
<path d="M0 0 C0 3 0 3 -2 6 C-2 7.32 -2 8.64 -2 10 C-1.34 9.67 -0.68 9.34 0 9 C0.33 10.65 0.66 12.3 1 14 C-0.65 13.67 -2.3 13.34 -4 13 C-4 12.34 -4 11.68 -4 11 C-4.598125 11.165 -5.19625 11.33 -5.8125 11.5 C-8 12 -8 12 -11 12 C-7.49102731 7.81576108 -3.91939465 3.80411834 0 0 Z " fill="#E1E4EE" transform="translate(615,657)"/>
<path d="M0 0 C1.25159912 0.00523682 2.50319824 0.01047363 3.79272461 0.01586914 C4.78942421 0.01799156 4.78942421 0.01799156 5.80625916 0.02015686 C7.93590735 0.02577021 10.06545175 0.03832485 12.19506836 0.05102539 C13.63582205 0.05603868 15.07657739 0.06060188 16.51733398 0.06469727 C20.05577938 0.07574394 23.59416375 0.09301747 27.13256836 0.11352539 C27.13256836 0.44352539 27.13256836 0.77352539 27.13256836 1.11352539 C18.22256836 1.11352539 9.31256836 1.11352539 0.13256836 1.11352539 C-0.19743164 3.09352539 -0.52743164 5.07352539 -0.86743164 7.11352539 C-2.18743164 6.78352539 -3.50743164 6.45352539 -4.86743164 6.11352539 C-3.79711502 0.15033278 -3.79711502 0.15033278 0 0 Z " fill="#3B3E5D" transform="translate(644.867431640625,654.886474609375)"/>
<path d="M0 0 C5.28 0 10.56 0 16 0 C16 0.33 16 0.66 16 1 C9.565 1.495 9.565 1.495 3 2 C3.66 3.65 4.32 5.3 5 7 C3.8125 9.3125 3.8125 9.3125 2 11 C1.01 11 0.02 11 -1 11 C-0.67 9.35 -0.34 7.7 0 6 C0.66 6 1.32 6 2 6 C2 5.01 2 4.02 2 3 C1.01 3.33 0.02 3.66 -1 4 C-0.67 2.68 -0.34 1.36 0 0 Z " fill="#CDCEDB" transform="translate(724,604)"/>
<path d="M0 0 C0.99 0.66 1.98 1.32 3 2 C1.50723624 7.39691512 -0.19695845 12.69905784 -2 18 C-2.66 17.34 -3.32 16.68 -4 16 C-4 14.68 -4 13.36 -4 12 C-3.01 12 -2.02 12 -1 12 C-1.99 10.68 -2.98 9.36 -4 8 C-3.67 7.34 -3.34 6.68 -3 6 C-2.67 6 -2.34 6 -2 6 C-1.34 4.02 -0.68 2.04 0 0 Z " fill="#DCDEE9" transform="translate(629,652)"/>
<path d="M0 0 C3.63 0.33 7.26 0.66 11 1 C9.21844267 4.56311466 7.83236991 6.35645475 5 9 C4.16396622 7.68921847 3.3312426 6.37632511 2.5 5.0625 C2.0359375 4.33160156 1.571875 3.60070312 1.09375 2.84765625 C0 1 0 1 0 0 Z " fill="#0F1333" transform="translate(726,605)"/>
<path d="M0 0 C-0.33 2.97 -0.66 5.94 -1 9 C-2.32 8.67 -3.64 8.34 -5 8 C-5.99 8.33 -6.98 8.66 -8 9 C-8.33 7.02 -8.66 5.04 -9 3 C-8.34 3 -7.68 3 -7 3 C-6.67 2.34 -6.34 1.68 -6 1 C-2 0 -2 0 0 0 Z " fill="#03072F" transform="translate(389,664)"/>
<path d="M0 0 C0.66 0.33 1.32 0.66 2 1 C1.319375 1.928125 0.63875 2.85625 -0.0625 3.8125 C-0.701875 4.864375 -1.34125 5.91625 -2 7 C-1.67 7.99 -1.34 8.98 -1 10 C-1.99 10.33 -2.98 10.66 -4 11 C-4 10.34 -4 9.68 -4 9 C-4.66 9 -5.32 9 -6 9 C-6.33 9.99 -6.66 10.98 -7 12 C-9.0625 12.6875 -9.0625 12.6875 -11 13 C-8.36517737 7.73035473 -4.20056089 4.02096446 0 0 Z " fill="#DDDFE9" transform="translate(303,597)"/>
<path d="M0 0 C4.28784648 4.28784648 4.28784648 4.28784648 4.75 7.9375 C4.84796875 8.62714844 4.9459375 9.31679688 5.046875 10.02734375 C5 12 5 12 3 15 C2.29925156 11.846632 2 9.27275026 2 6 C1.34 6 0.68 6 0 6 C-0.33 6.99 -0.66 7.98 -1 9 C-2.1875 7.3125 -2.1875 7.3125 -3 5 C-1.625 2.25 -1.625 2.25 0 0 Z " fill="#03072D" transform="translate(381,598)"/>
<path d="M0 0 C0.99 0.33 1.98 0.66 3 1 C4.1875 4.5625 4.1875 4.5625 5 8 C4.01 7.34 3.02 6.68 2 6 C2 5.34 2 4.68 2 4 C1.34 4 0.68 4 0 4 C0 2.68 0 1.36 0 0 Z M-2 2 C-1.34 2.99 -0.68 3.98 0 5 C-0.99 5.33 -1.98 5.66 -3 6 C-2.67 4.68 -2.34 3.36 -2 2 Z M-8 3 C-7.34 3.66 -6.68 4.32 -6 5 C-5.34 4.67 -4.68 4.34 -4 4 C-3.34 5.65 -2.68 7.3 -2 9 C-3.32 9 -4.64 9 -6 9 C-6.66 9.66 -7.32 10.32 -8 11 C-8 8.36 -8 5.72 -8 3 Z " fill="#020628" transform="translate(434,616)"/>
<path d="M0 0 C3.0625 0.1875 3.0625 0.1875 5.0625 2.1875 C2.7525 2.5175 0.4425 2.8475 -1.9375 3.1875 C-2.2675 10.1175 -2.5975 17.0475 -2.9375 24.1875 C-3.2675 24.1875 -3.5975 24.1875 -3.9375 24.1875 C-3.96637236 20.37501574 -3.98425492 16.5625593 -4 12.75 C-4.00837891 11.66138672 -4.01675781 10.57277344 -4.02539062 9.45117188 C-4.02861328 8.41669922 -4.03183594 7.38222656 -4.03515625 6.31640625 C-4.04039307 5.35806885 -4.04562988 4.39973145 -4.05102539 3.41235352 C-3.87699572 0.00174627 -3.46903848 0.22142799 0 0 Z " fill="#D4D8EC" transform="translate(359.9375,594.8125)"/>
<path d="M0 0 C0.52078125 0.65484375 1.0415625 1.3096875 1.578125 1.984375 C4.78306217 4.6517098 6.64157237 4.41433711 10.75 4.25 C11.92046875 4.21390625 13.0909375 4.1778125 14.296875 4.140625 C15.18890625 4.09421875 16.0809375 4.0478125 17 4 C15.29171079 6.10633718 14.47851584 6.93801608 11.73828125 7.29296875 C10.93777344 7.25816406 10.13726562 7.22335937 9.3125 7.1875 C8.50425781 7.16042969 7.69601562 7.13335938 6.86328125 7.10546875 C6.24839844 7.07066406 5.63351562 7.03585937 5 7 C5.66 7.66 6.32 8.32 7 9 C5.1875 9.625 5.1875 9.625 3 10 C2.01 9.34 1.02 8.68 0 8 C0 5.33333333 0 2.66666667 0 0 Z " fill="#D3D6E0" transform="translate(345,692)"/>
<path d="M0 0 C2.50738709 7.52216128 1.87472904 13.43910933 0 21 C0.66 21.33 1.32 21.66 2 22 C1.01 22 0.02 22 -1 22 C-1.02887814 18.52085059 -1.04675687 15.04173169 -1.0625 11.5625 C-1.07087891 10.56927734 -1.07925781 9.57605469 -1.08789062 8.55273438 C-1.09111328 7.60849609 -1.09433594 6.66425781 -1.09765625 5.69140625 C-1.10289307 4.81685791 -1.10812988 3.94230957 -1.11352539 3.04125977 C-1 1 -1 1 0 0 Z " fill="#030425" transform="translate(316,597)"/>
<path d="M0 0 C0 2.33333333 0 4.66666667 0 7 C-1.28913487 7.67154933 -2.58140204 8.33708859 -3.875 9 C-4.59429687 9.37125 -5.31359375 9.7425 -6.0546875 10.125 C-8 11 -8 11 -10 11 C-10 10.01 -10 9.02 -10 8 C-8.03501678 6.61558 -6.02951535 5.28796166 -4 4 C-2.63113049 2.70317626 -1.2830709 1.38176866 0 0 Z " fill="#181C3B" transform="translate(374,675)"/>
<path d="M0 0 C-0.66 1.98 -1.32 3.96 -2 6 C-1.01 6.66 -0.02 7.32 1 8 C1.6875 10.125 1.6875 10.125 2 12 C0.68 11.67 -0.64 11.34 -2 11 C-1.67 10.01 -1.34 9.02 -1 8 C-2.65 7.67 -4.3 7.34 -6 7 C-6.33 6.01 -6.66 5.02 -7 4 C-6.34 4 -5.68 4 -5 4 C-4.67 3.01 -4.34 2.02 -4 1 C-2 0 -2 0 0 0 Z " fill="#03072B" transform="translate(574,661)"/>
<path d="M0 0 C2.375 0.1875 2.375 0.1875 5 1 C6.3125 3.5625 6.3125 3.5625 7 6 C6.34 6 5.68 6 5 6 C4.67 5.67 4.34 5.34 4 5 C3.67 6.32 3.34 7.64 3 9 C2.01 8.67 1.02 8.34 0 8 C-0.79953138 4.71303767 -1.09658936 3.28976808 0 0 Z " fill="#04072E" transform="translate(343,648)"/>
<path d="M0 0 C0.99 0 1.98 0 3 0 C2.54965877 1.62723299 2.08944646 3.25173664 1.625 4.875 C1.36976563 5.77992188 1.11453125 6.68484375 0.8515625 7.6171875 C0 10 0 10 -2 12 C-2.99 11.01 -3.98 10.02 -5 9 C-4.54625 8.2575 -4.0925 7.515 -3.625 6.75 C-2.31359204 4.53069422 -1.11719197 2.32032178 0 0 Z " fill="#DADEEA" transform="translate(646,608)"/>
<path d="M0 0 C2.22855574 -0.0814222 4.45797655 -0.13938079 6.6875 -0.1875 C8.54955078 -0.23970703 8.54955078 -0.23970703 10.44921875 -0.29296875 C14.22392267 0.01847547 16.02090442 0.72186809 19 3 C20.3125 5.1875 20.3125 5.1875 21 7 C20.01 6.34 19.02 5.68 18 5 C16.0040278 4.32136945 14.00431449 3.65358081 12 3 C11.67 2.67 11.34 2.34 11 2 C9.15108054 1.76636119 7.29511969 1.58696365 5.4375 1.4375 C4.42558594 1.35371094 3.41367187 1.26992188 2.37109375 1.18359375 C1.19740234 1.09271484 1.19740234 1.09271484 0 1 C0 0.67 0 0.34 0 0 Z " fill="#D6D9E6" transform="translate(576,615)"/>
<path d="M0 0 C0.33 0.66 0.66 1.32 1 2 C1.66 2 2.32 2 3 2 C2.67 2.99 2.34 3.98 2 5 C-3.94 5 -9.88 5 -16 5 C-16 4.67 -16 4.34 -16 4 C-14.39318359 3.81824219 -14.39318359 3.81824219 -12.75390625 3.6328125 C-11.35671248 3.46402399 -9.95958009 3.29472687 -8.5625 3.125 C-7.85544922 3.04636719 -7.14839844 2.96773437 -6.41992188 2.88671875 C-4.60326568 2.66072324 -2.79937478 2.33699273 -1 2 C-0.67 1.34 -0.34 0.68 0 0 Z " fill="#BFC2D0" transform="translate(666,600)"/>
<path d="M0 0 C1.4375 2.125 1.4375 2.125 2 4 C1.01 3.67 0.02 3.34 -1 3 C-3.14255793 3.38932856 -3.14255793 3.38932856 -5 4 C-5 3.34 -5 2.68 -5 2 C-7.97 1.505 -7.97 1.505 -11 1 C-8.60460587 -3.79078827 -4.01961981 -1.53476393 0 0 Z " fill="#04072E" transform="translate(377,595)"/>
<path d="M0 0 C1.32 0 2.64 0 4 0 C2.54997977 4.10839064 0.6020866 7.50344613 -2 11 C-2.66 11 -3.32 11 -4 11 C-3.5247412 9.35303396 -3.04468109 7.70745272 -2.5625 6.0625 C-2.29566406 5.14597656 -2.02882813 4.22945312 -1.75390625 3.28515625 C-1 1 -1 1 0 0 Z " fill="#131834" transform="translate(749,649)"/>
<path d="M0 0 C0.66 0 1.32 0 2 0 C2.33 0.99 2.66 1.98 3 3 C4.49985609 4.66710346 4.49985609 4.66710346 6 6 C5.01 6.495 5.01 6.495 4 7 C3.67 7.66 3.34 8.32 3 9 C2.67 8.67 2.34 8.34 2 8 C-0.34987262 7.76472227 -2.70556039 7.58613583 -5.0625 7.4375 C-6.99802734 7.31181641 -6.99802734 7.31181641 -8.97265625 7.18359375 C-10.47119141 7.09271484 -10.47119141 7.09271484 -12 7 C-12 6.67 -12 6.34 -12 6 C-5.565 5.505 -5.565 5.505 1 5 C0.67 3.35 0.34 1.7 0 0 Z " fill="#DCDCE8" transform="translate(690,667)"/>
<path d="M0 0 C0.99 0.66 1.98 1.32 3 2 C1.52307692 6.67692308 1.52307692 6.67692308 -1.125 8.3125 C-2.053125 8.6528125 -2.053125 8.6528125 -3 9 C-4 7 -4 7 -3.1875 3.9375 C-2 1 -2 1 0 0 Z " fill="#EAECF5" transform="translate(724,664)"/>
<path d="M0 0 C0.66 0.33 1.32 0.66 2 1 C2.39044206 2.31774196 2.70955086 3.65667272 3 5 C3.65509503 7.00382009 4.31974363 9.00458132 5 11 C4.34 11.66 3.68 12.32 3 13 C-1.67014147 5.55696203 -1.67014147 5.55696203 -1 1 C-0.67 0.67 -0.34 0.34 0 0 Z " fill="#E5E9F4" transform="translate(291,661)"/>
<path d="M0 0 C0 0.66 0 1.32 0 2 C0.66 2.66 1.32 3.32 2 4 C1.01 4 0.02 4 -1 4 C-0.67 5.98 -0.34 7.96 0 10 C-0.99 10.495 -0.99 10.495 -2 11 C-2.33 8.69 -2.66 6.38 -3 4 C-3.66 4 -4.32 4 -5 4 C-5 3.34 -5 2.68 -5 2 C-5.66 1.67 -6.32 1.34 -7 1 C-3.375 -1.125 -3.375 -1.125 0 0 Z " fill="#E1E1EB" transform="translate(424,651)"/>
<path d="M0 0 C2.96404505 2.80804268 5.44499019 5.18315774 7 9 C5.35 9.33 3.7 9.66 2 10 C2 9.01 2 8.02 2 7 C1.01 6.67 0.02 6.34 -1 6 C-0.67 4.02 -0.34 2.04 0 0 Z " fill="#DEDFEC" transform="translate(730,613)"/>
<path d="M0 0 C0.66 0 1.32 0 2 0 C2 1.65 2 3.3 2 5 C4.31 5.66 6.62 6.32 9 7 C8.67 7.99 8.34 8.98 8 10 C2.25 8.25 2.25 8.25 0 6 C-0.125 2.875 -0.125 2.875 0 0 Z " fill="#03072C" transform="translate(338,637)"/>
<path d="M0 0 C0.99 0.33 1.98 0.66 3 1 C3 1.66 3 2.32 3 3 C2.34 3 1.68 3 1 3 C1 3.99 1 4.98 1 6 C1.99 6.33 2.98 6.66 4 7 C-0.455 7.495 -0.455 7.495 -5 8 C-3.35 5.36 -1.7 2.72 0 0 Z " fill="#191C37" transform="translate(728,665)"/>
<path d="M0 0 C0 3 0 3 -1 6 C-1.66 6 -2.32 6 -3 6 C-2.67 7.32 -2.34 8.64 -2 10 C-2.99 10.66 -3.98 11.32 -5 12 C-5.99 11.67 -6.98 11.34 -8 11 C-8 10.34 -8 9.68 -8 9 C-7.01 8.34 -6.02 7.68 -5 7 C-5.33 6.34 -5.66 5.68 -6 5 C-4.02 3.35 -2.04 1.7 0 0 Z " fill="#101435" transform="translate(323,644)"/>
<path d="M0 0 C0.99 0.33 1.98 0.66 3 1 C3 2.65 3 4.3 3 6 C2.01 6.33 1.02 6.66 0 7 C-0.33 7.66 -0.66 8.32 -1 9 C-1.99 9 -2.98 9 -4 9 C-2.25 2.25 -2.25 2.25 0 0 Z " fill="#040827" transform="translate(283,607)"/>
<path d="M0 0 C1.32 0.33 2.64 0.66 4 1 C4 1.66 4 2.32 4 3 C3.34 3 2.68 3 2 3 C2 3.66 2 4.32 2 5 C-1.63 5 -5.26 5 -9 5 C-8.67 4.34 -8.34 3.68 -8 3 C-6.576875 3.0928125 -6.576875 3.0928125 -5.125 3.1875 C-3.578125 3.0946875 -3.578125 3.0946875 -2 3 C-1.34 2.01 -0.68 1.02 0 0 Z " fill="#020726" transform="translate(386,624)"/>
<path d="M0 0 C0.66 0.99 1.32 1.98 2 3 C1.34 3 0.68 3 0 3 C0 3.66 0 4.32 0 5 C1.32 4.34 2.64 3.68 4 3 C4.33 4.65 4.66 6.3 5 8 C3.34385343 8.38218767 1.67542976 8.71395102 0 9 C-1 8 -1 8 -1.125 5.0625 C-1 2 -1 2 0 0 Z " fill="#DDDFEE" transform="translate(291,610)"/>
<path d="M0 0 C0.66 0 1.32 0 2 0 C3.00496852 3.01490557 3.10335303 5.04181692 3.0625 8.1875 C3.05347656 9.08855469 3.04445313 9.98960937 3.03515625 10.91796875 C3.02355469 11.60503906 3.01195312 12.29210937 3 13 C2.01 13.495 2.01 13.495 1 14 C0.67 9.38 0.34 4.76 0 0 Z " fill="#22223B" transform="translate(479,645)"/>
<path d="M0 0 C0.66 0.66 1.32 1.32 2 2 C0.125 3.625 0.125 3.625 -3 5 C-6.42515549 4.67055756 -9.68193505 3.89555539 -13 3 C-13 2.67 -13 2.34 -13 2 C-8.71 2 -4.42 2 0 2 C0 1.34 0 0.68 0 0 Z " fill="#060A28" transform="translate(669,643)"/>
<path d="M0 0 C2.92509086 3.90012114 3.47535095 5.38308839 4 10 C3.34 10 2.68 10 2 10 C2 8.35 2 6.7 2 5 C1.34 5 0.68 5 0 5 C0.33 5.99 0.66 6.98 1 8 C-0.32 8.99 -1.64 9.98 -3 11 C-2.01 7.37 -1.02 3.74 0 0 Z " fill="#CED2E2" transform="translate(658,616)"/>
<path d="M0 0 C0 3.62453269 -0.92469613 5.07920195 -3 8 C-3.99 8.33 -4.98 8.66 -6 9 C-6 8.34 -6 7.68 -6 7 C-6.66 6.67 -7.32 6.34 -8 6 C-5.36 4.02 -2.72 2.04 0 0 Z " fill="#E4E6EF" transform="translate(381,684)"/>
<path d="M0 0 C-0.99 0.33 -1.98 0.66 -3 1 C-3 1.66 -3 2.32 -3 3 C-4.65 3 -6.3 3 -8 3 C-8 2.34 -8 1.68 -8 1 C-10.64 1 -13.28 1 -16 1 C-16 0.67 -16 0.34 -16 0 C-13.89651926 -0.19504458 -11.79217415 -0.38078496 -9.6875 -0.5625 C-8.51574219 -0.66691406 -7.34398437 -0.77132812 -6.13671875 -0.87890625 C-3 -1 -3 -1 0 0 Z " fill="#2B2D48" transform="translate(464,663)"/>
<path d="M0 0 C0.33 0 0.66 0 1 0 C1.22084624 6.09781001 1.01167675 11.21642935 -1 17 C-2.89505784 11.07794424 -2.22914492 5.71218387 0 0 Z " fill="#C5CBDB" transform="translate(603,634)"/>
<path d="M0 0 C1.65 0 3.3 0 5 0 C5.33 0.99 5.66 1.98 6 3 C3.69 4.65 1.38 6.3 -1 8 C-0.67 5.36 -0.34 2.72 0 0 Z " fill="#E0E4EF" transform="translate(293,585)"/>
<path d="M0 0 C0.66 0.33 1.32 0.66 2 1 C4.54615009 1.23172827 7.07396225 1.41894529 9.625 1.5625 C10.33140625 1.60568359 11.0378125 1.64886719 11.765625 1.69335938 C13.51018537 1.79944751 15.25506697 1.90022889 17 2 C17 2.33 17 2.66 17 3 C16.02417969 3.06058594 15.04835938 3.12117187 14.04296875 3.18359375 C12.13451172 3.30927734 12.13451172 3.30927734 10.1875 3.4375 C8.92292969 3.51871094 7.65835938 3.59992187 6.35546875 3.68359375 C3.00818107 3.87184547 3.00818107 3.87184547 0 5 C-0.66 4.01 -1.32 3.02 -2 2 C-1.34 2 -0.68 2 0 2 C0 1.34 0 0.68 0 0 Z " fill="#D5D5E2" transform="translate(771,671)"/>
<path d="M0 0 C0.99 0.66 1.98 1.32 3 2 C1.50902342 5.7952131 -0.75700849 7.61042731 -4 10 C-4 8.02 -4 6.04 -4 4 C-3.01 4 -2.02 4 -1 4 C-0.67 2.68 -0.34 1.36 0 0 Z " fill="#E0E3F2" transform="translate(324,637)"/>
<path d="M0 0 C0.598125 0.350625 1.19625 0.70125 1.8125 1.0625 C1.4825 3.3725 1.1525 5.6825 0.8125 8.0625 C0.4825 7.0725 0.1525 6.0825 -0.1875 5.0625 C-0.8475 5.0625 -1.5075 5.0625 -2.1875 5.0625 C-4.1875 3.0625 -4.1875 3.0625 -5.1875 0.0625 C-2.1875 -0.9375 -2.1875 -0.9375 0 0 Z " fill="#02072D" transform="translate(561.1875,615.9375)"/>
<path d="M0 0 C2.64 0.66 5.28 1.32 8 2 C8 3.32 8 4.64 8 6 C5.69 5.34 3.38 4.68 1 4 C0.67 2.68 0.34 1.36 0 0 Z " fill="#1C1D3D" transform="translate(565,667)"/>
<path d="M0 0 C4.39158329 1.4638611 4.87947433 3.97831338 7 8 C5.35 8 3.7 8 2 8 C0 2.25 0 2.25 0 0 Z " fill="#DADCE7" transform="translate(763,660)"/>
<path d="M0 0 C0.66 0.99 1.32 1.98 2 3 C5.58357241 3.25015873 5.58357241 3.25015873 9 3 C9 3.33 9 3.66 9 4 C0.96498906 6.43326039 0.96498906 6.43326039 -3.0625 4.625 C-3.701875 4.08875 -4.34125 3.5525 -5 3 C-3.7124791 0.4249582 -2.85933002 0 0 0 Z " fill="#020627" transform="translate(351,625)"/>
<path d="M0 0 C0.99 0.99 1.98 1.98 3 3 C3.66 2.67 4.32 2.34 5 2 C5.6875 4.25 5.6875 4.25 6 7 C4.5625 9.3125 4.5625 9.3125 3 11 C2.49384702 9.73160474 1.99530901 8.46016898 1.5 7.1875 C1.2215625 6.47980469 0.943125 5.77210938 0.65625 5.04296875 C0 3 0 3 0 0 Z " fill="#E7E7F5" transform="translate(672,616)"/>
<path d="M0 0 C2.1875 -0.3125 2.1875 -0.3125 5 0 C7.8125 2.5 7.8125 2.5 10 5 C9.34 5.66 8.68 6.32 8 7 C6.66382648 6.02471263 5.3311249 5.04466681 4 4.0625 C3.2575 3.51722656 2.515 2.97195313 1.75 2.41015625 C1.1725 1.94480469 0.595 1.47945312 0 1 C0 0.67 0 0.34 0 0 Z " fill="#1E2240" transform="translate(290,685)"/>
<path d="M0 0 C0.33 0 0.66 0 1 0 C1 2.31 1 4.62 1 7 C1.66 7 2.32 7 3 7 C2.67 8.98 2.34 10.96 2 13 C1.01 12.34 0.02 11.68 -1 11 C-0.67 7.37 -0.34 3.74 0 0 Z " fill="#040727" transform="translate(315,674)"/>
<path d="M0 0 C0.66 0.33 1.32 0.66 2 1 C-0.31 3.97 -2.62 6.94 -5 10 C-5.66 9.34 -6.32 8.68 -7 8 C-6.34 6.68 -5.68 5.36 -5 4 C-4.01 4 -3.02 4 -2 4 C-2 3.34 -2 2.68 -2 2 C-1.34 2 -0.68 2 0 2 C0 1.34 0 0.68 0 0 Z " fill="#212440" transform="translate(385,676)"/>
<path d="M0 0 C1.65 1.65 3.3 3.3 5 5 C4.67 5.99 4.34 6.98 4 8 C3.67 7.34 3.34 6.68 3 6 C1.68 6.33 0.36 6.66 -1 7 C-0.67 5.68 -0.34 4.36 0 3 C-0.66 2.67 -1.32 2.34 -2 2 C-1.34 1.34 -0.68 0.68 0 0 Z " fill="#E2E3F2" transform="translate(755,647)"/>
<path d="M0 0 C1.32 1.32 2.64 2.64 4 4 C1.64561267 5.42944945 0.51967567 6.08661261 -2.25 5.625 C-2.8275 5.41875 -3.405 5.2125 -4 5 C-4 4.01 -4 3.02 -4 2 C-3.34 2.33 -2.68 2.66 -2 3 C-1.34 2.67 -0.68 2.34 0 2 C0 1.34 0 0.68 0 0 Z " fill="#E4E5EE" transform="translate(286,681)"/>
<path d="M0 0 C0 0.66 0 1.32 0 2 C-6.4 3.35384615 -6.4 3.35384615 -9.4375 1.5625 C-9.953125 1.046875 -10.46875 0.53125 -11 0 C-6.98195309 -0.84098656 -3.98196457 -1.05404945 0 0 Z " fill="#282941" transform="translate(437,654)"/>
<path d="M0 0 C1.58502671 3.17005342 1.60385067 6.49124878 2 10 C1.01 10 0.02 10 -1 10 C-1 8.68 -1 7.36 -1 6 C-1.99 5.67 -2.98 5.34 -4 5 C-2.68 3.35 -1.36 1.7 0 0 Z " fill="#E9EEF2" transform="translate(350,632)"/>
<path d="M0 0 C0.70189453 0.00451172 1.40378906 0.00902344 2.12695312 0.01367188 C3.85550538 0.02543073 5.58401365 0.04336546 7.3125 0.0625 C7.3125 0.3925 7.3125 0.7225 7.3125 1.0625 C6.57644531 1.12308594 5.84039062 1.18367187 5.08203125 1.24609375 C4.10621094 1.32988281 3.13039063 1.41367187 2.125 1.5 C1.16207031 1.58121094 0.19914062 1.66242187 -0.79296875 1.74609375 C-3.68239686 1.99977471 -3.68239686 1.99977471 -6.42578125 2.72265625 C-7.54533203 2.89087891 -7.54533203 2.89087891 -8.6875 3.0625 C-9.3475 2.4025 -10.0075 1.7425 -10.6875 1.0625 C-7.06882441 -0.1437252 -3.76243749 -0.04566918 0 0 Z " fill="#323750" transform="translate(449.6875,612.9375)"/>
<path d="M0 0 C0.33 0.66 0.66 1.32 1 2 C-6.625 4.125 -6.625 4.125 -10 3 C-10 2.34 -10 1.68 -10 1 C-6.61981469 -0.04005702 -3.5219721 -0.08004482 0 0 Z " fill="#141834" transform="translate(448,604)"/>
<path d="M0 0 C2.33944736 0.28730055 4.6739143 0.61936779 7 1 C2.25 4.875 2.25 4.875 0 6 C-0.38218767 4.34385343 -0.71395102 2.67542976 -1 1 C-0.67 0.67 -0.34 0.34 0 0 Z " fill="#131535" transform="translate(279,652)"/>
<path d="M0 0 C2.475 0.495 2.475 0.495 5 1 C5.33 2.65 5.66 4.3 6 6 C5.01 6.33 4.02 6.66 3 7 C0 2.25 0 2.25 0 0 Z " fill="#E7EAF3" transform="translate(773,648)"/>
<path d="M0 0 C0.99 0 1.98 0 3 0 C3 0.66 3 1.32 3 2 C3.99 1.67 4.98 1.34 6 1 C8.1875 2.4375 8.1875 2.4375 10 4 C6.6875 4.6875 6.6875 4.6875 3 5 C1.0625 3.6875 1.0625 3.6875 0 2 C0 1.34 0 0.68 0 0 Z " fill="#E3E6EF" transform="translate(440,624)"/>
<path d="M0 0 C0.33 0 0.66 0 1 0 C1.08097324 2.27024968 1.13917704 4.54132075 1.1875 6.8125 C1.22230469 8.07707031 1.25710938 9.34164062 1.29296875 10.64453125 C1 14 1 14 -0.51171875 15.94921875 C-1.00285156 16.29597656 -1.49398438 16.64273438 -2 17 C-2 15.68 -2 14.36 -2 13 C-1.34 13 -0.68 13 0 13 C0 8.71 0 4.42 0 0 Z " fill="#D6DAE9" transform="translate(344,608)"/>
<path d="M0 0 C0.33 1.32 0.66 2.64 1 4 C2.65 3.67 4.3 3.34 6 3 C5.34 4.32 4.68 5.64 4 7 C0.34683329 5.75023244 -0.78065836 5.32901247 -3 2 C-2.01 1.34 -1.02 0.68 0 0 Z " fill="#232441" transform="translate(431,664)"/>
<path d="M0 0 C1.32 0 2.64 0 4 0 C4 3 4 3 2.75 4.6875 C1 6 1 6 -3 6 C-2 4 -1 2 0 0 Z " fill="#030829" transform="translate(604,649)"/>
<path d="M0 0 C0.2475 0.5775 0.495 1.155 0.75 1.75 C2.16683317 4.3002997 3.87627537 6.01785701 6 8 C5.01 8.33 4.02 8.66 3 9 C1.35 7.35 -0.3 5.7 -2 4 C-1.34 2.68 -0.68 1.36 0 0 Z " fill="#DADEED" transform="translate(345,637)"/>
<path d="M0 0 C0.66 0 1.32 0 2 0 C2 0.99 2 1.98 2 3 C6.455 3.99 6.455 3.99 11 5 C11 5.33 11 5.66 11 6 C7.7 6 4.4 6 1 6 C0.67 4.02 0.34 2.04 0 0 Z " fill="#1E243E" transform="translate(465,616)"/>
<path d="M0 0 C2 3 2 3 2 5 C-0.97 5 -3.94 5 -7 5 C-3.375 2 -3.375 2 0 2 C0 1.34 0 0.68 0 0 Z " fill="#06082B" transform="translate(477,616)"/>
<path d="M0 0 C1 2 2 4 3 6 C2.34 6 1.68 6 1 6 C0.67 6.99 0.34 7.98 0 9 C-0.66 9 -1.32 9 -2 9 C-2 5.20442119 -1.49821059 3.37097383 0 0 Z " fill="#02082D" transform="translate(288,598)"/>
<path d="M0 0 C1.32 0.33 2.64 0.66 4 1 C4 2.65 4 4.3 4 6 C2.02 6.33 0.04 6.66 -2 7 C-2 6.34 -2 5.68 -2 5 C-1.34 4.67 -0.68 4.34 0 4 C0 2.68 0 1.36 0 0 Z " fill="#04072C" transform="translate(294,596)"/>
<path d="M0 0 C0.66 0 1.32 0 2 0 C2 0.66 2 1.32 2 2 C3.65 2.33 5.3 2.66 7 3 C6.67 3.66 6.34 4.32 6 5 C4.02 5 2.04 5 0 5 C0 3.35 0 1.7 0 0 Z " fill="#E3E5F3" transform="translate(357,680)"/>
<path d="M0 0 C0.99 0 1.98 0 3 0 C2.39009109 3.55780196 1.4216319 6.6828589 0 10 C-0.33 10 -0.66 10 -1 10 C-0.67 6.7 -0.34 3.4 0 0 Z " fill="#292C4B" transform="translate(389,664)"/>
<path d="M0 0 C0.33 0 0.66 0 1 0 C1.49230769 6.4 1.49230769 6.4 -1 9.4375 C-1.99 10.2109375 -1.99 10.2109375 -3 11 C-3.33 10.34 -3.66 9.68 -4 9 C-3.34 9 -2.68 9 -2 9 C-2 8.34 -2 7.68 -2 7 C-2.66 6.67 -3.32 6.34 -4 6 C-3.01 5.34 -2.02 4.68 -1 4 C-0.27617533 1.94074861 -0.27617533 1.94074861 0 0 Z " fill="#2F324E" transform="translate(392,618)"/>
<path d="M0 0 C3.23475448 1.61737724 4.70572021 2.47629223 7 5 C6.01 5.99 5.02 6.98 4 8 C2.68 5.36 1.36 2.72 0 0 Z " fill="#E0E2EE" transform="translate(743,608)"/>
<path d="M0 0 C0 0.99 0 1.98 0 3 C-3.92896395 3 -7.19893228 1.99700137 -11 1 C-7.2297564 -1.56376565 -4.32597804 -0.83191885 0 0 Z " fill="#CBCDDD" transform="translate(603,604)"/>
<path d="M0 0 C2.875 -0.125 2.875 -0.125 6 0 C6.66 0.66 7.32 1.32 8 2 C5.69 2.33 3.38 2.66 1 3 C0.67 3.99 0.34 4.98 0 6 C0 4.02 0 2.04 0 0 Z " fill="#DEE0EF" transform="translate(357,595)"/>
<path d="M0 0 C0.66 0.33 1.32 0.66 2 1 C1.67 2.98 1.34 4.96 1 7 C-0.65 7 -2.3 7 -4 7 C-2.68 4.69 -1.36 2.38 0 0 Z " fill="#E4E6F3" transform="translate(387,675)"/>
<path d="M0 0 C1.98 0.99 1.98 0.99 4 2 C4 2.66 4 3.32 4 4 C4.99 4.33 5.98 4.66 7 5 C6.01 6.485 6.01 6.485 5 8 C2.74754119 5.31158141 1.11786042 3.35358125 0 0 Z " fill="#E5E9F2" transform="translate(436,653)"/>
<path d="M0 0 C0.33 0 0.66 0 1 0 C0.67 2.31 0.34 4.62 0 7 C-1.65 7.66 -3.3 8.32 -5 9 C-3.35 6.03 -1.7 3.06 0 0 Z " fill="#191D39" transform="translate(741,645)"/>
<path d="M0 0 C0.66 1.32 1.32 2.64 2 4 C1.34 4 0.68 4 0 4 C-0.33 4.99 -0.66 5.98 -1 7 C-2.5 5.625 -2.5 5.625 -4 4 C-4 3.34 -4 2.68 -4 2 C-2.68 1.34 -1.36 0.68 0 0 Z " fill="#101435" transform="translate(755,642)"/>
<path d="M0 0 C3.3 0 6.6 0 10 0 C10 0.66 10 1.32 10 2 C10.66 2.33 11.32 2.66 12 3 C10.56163249 2.88541307 9.12429034 2.75790884 7.6875 2.625 C6.88699219 2.55539062 6.08648437 2.48578125 5.26171875 2.4140625 C3 2 3 2 0 0 Z " fill="#363C54" transform="translate(446,642)"/>
<path d="M0 0 C0.66 0.33 1.32 0.66 2 1 C2.625 3.0625 2.625 3.0625 3 5 C2.01 5 1.02 5 0 5 C0.33 5.99 0.66 6.98 1 8 C0.34 8 -0.32 8 -1 8 C-1.625 5.6875 -1.625 5.6875 -2 3 C-1.34 2.01 -0.68 1.02 0 0 Z " fill="#DFE1E9" transform="translate(738,624)"/>
<path d="M0 0 C0.33 0.66 0.66 1.32 1 2 C1.99 2 2.98 2 4 2 C3.34 3.32 2.68 4.64 2 6 C0.35 6 -1.3 6 -3 6 C-2.01 4.02 -1.02 2.04 0 0 Z " fill="#DADDE8" transform="translate(779,614)"/>
<path d="M0 0 C1.32 0.33 2.64 0.66 4 1 C4 1.66 4 2.32 4 3 C2.02 3.66 0.04 4.32 -2 5 C-2.66 4.01 -3.32 3.02 -4 2 C-3.01 2 -2.02 2 -1 2 C-0.67 1.34 -0.34 0.68 0 0 Z " fill="#0F1438" transform="translate(288,676)"/>
<path d="M0 0 C0.33 0.66 0.66 1.32 1 2 C2.093125 1.95875 3.18625 1.9175 4.3125 1.875 C8 2 8 2 11 4 C7.37 4 3.74 4 0 4 C0 2.68 0 1.36 0 0 Z " fill="#03051C" transform="translate(773,669)"/>
<path d="M0 0 C2.31 1.98 4.62 3.96 7 6 C5.02 6.99 5.02 6.99 3 8 C1.5 6.8125 1.5 6.8125 0 5 C-0.1875 2.3125 -0.1875 2.3125 0 0 Z " fill="#DDDCEA" transform="translate(425,663)"/>
<path d="M0 0 C0.33 1.32 0.66 2.64 1 4 C-0.32 4.99 -1.64 5.98 -3 7 C-3.66 6.34 -4.32 5.68 -5 5 C-4.01 4.67 -3.02 4.34 -2 4 C-2 3.01 -2 2.02 -2 1 C-1.34 0.67 -0.68 0.34 0 0 Z " fill="#141638" transform="translate(478,661)"/>
<path d="M0 0 C0.99 0.33 1.98 0.66 3 1 C3 1.99 3 2.98 3 4 C3.66 4 4.32 4 5 4 C5 5.65 5 7.3 5 9 C0.57142857 3.85714286 0.57142857 3.85714286 0 0 Z " fill="#131532" transform="translate(423,657)"/>
<path d="M0 0 C2.95183101 2.95183101 3.08663988 5.95511947 4 10 C3.34 9.67 2.68 9.34 2 9 C2 8.01 2 7.02 2 6 C1.01 6 0.02 6 -1 6 C-0.67 4.02 -0.34 2.04 0 0 Z " fill="#3C3E58" transform="translate(682,646)"/>
<path d="M0 0 C0.66 0 1.32 0 2 0 C2 0.66 2 1.32 2 2 C1.34 2 0.68 2 0 2 C-0.33 3.32 -0.66 4.64 -1 6 C-2.32 6.33 -3.64 6.66 -5 7 C-3.47793991 4.37098712 -2.15634036 2.15634036 0 0 Z " fill="#E3E8F2" transform="translate(297,603)"/>
<path d="M0 0 C0.99 0.33 1.98 0.66 3 1 C0.525 4.465 0.525 4.465 -2 8 C-2.33 6.68 -2.66 5.36 -3 4 C-1.5625 1.75 -1.5625 1.75 0 0 Z " fill="#1F223C" transform="translate(295,601)"/>
<path d="M0 0 C0.66 0.33 1.32 0.66 2 1 C-1.32307692 4.93846154 -1.32307692 4.93846154 -4.75 5.25 C-5.4925 5.1675 -6.235 5.085 -7 5 C-2.25 1.125 -2.25 1.125 0 0 Z " fill="#20263F" transform="translate(303,585)"/>
<path d="M0 0 C1.98 0.99 3.96 1.98 6 3 C5.34 4.32 4.68 5.64 4 7 C0 2.25 0 2.25 0 0 Z " fill="#1F253E" transform="translate(280,670)"/>
<path d="M0 0 C1.65 0 3.3 0 5 0 C5.33 0.99 5.66 1.98 6 3 C4.35 3.33 2.7 3.66 1 4 C0.67 2.68 0.34 1.36 0 0 Z " fill="#050B2D" transform="translate(463,635)"/>
<path d="M0 0 C1.65 0 3.3 0 5 0 C5.33 0.99 5.66 1.98 6 3 C6.66 3.33 7.32 3.66 8 4 C6.68 4.33 5.36 4.66 4 5 C3.67 4.01 3.34 3.02 3 2 C2.01 1.67 1.02 1.34 0 1 C0 0.67 0 0.34 0 0 Z " fill="#050826" transform="translate(431,634)"/>
<path d="M0 0 C1.66611905 -0.042721 3.33382885 -0.04063832 5 0 C6 1 6 1 6.0625 3.5625 C6.041875 4.366875 6.02125 5.17125 6 6 C5.01 5.34 4.02 4.68 3 4 C3 3.01 3 2.02 3 1 C2.01 0.67 1.02 0.34 0 0 Z " fill="#E8EAF4" transform="translate(374,661)"/>
<path d="M0 0 C2.2477975 2.05233685 3.0022242 3.00667261 4 6 C3.01 6 2.02 6 1 6 C-0.0625 4.125 -0.0625 4.125 -1 2 C-0.67 1.34 -0.34 0.68 0 0 Z " fill="#1B1F3C" transform="translate(610,614)"/>
<path d="M0 0 C0.2475 0.639375 0.495 1.27875 0.75 1.9375 C1.81562433 4.18741541 1.81562433 4.18741541 4.125 4.75 C4.74375 4.8325 5.3625 4.915 6 5 C5 7 5 7 3 8 C0.37613513 4.93882432 0 4.26826873 0 0 Z " fill="#EAEBF6" transform="translate(609,609)"/>
<path d="M0 0 C0.99 0.33 1.98 0.66 3 1 C4.1875 3.5625 4.1875 3.5625 5 6 C4.01 6 3.02 6 2 6 C0 3 0 3 0 0 Z " fill="#1E213A" transform="translate(741,608)"/>
<path d="M0 0 C0.99 0 1.98 0 3 0 C3.33 2.64 3.66 5.28 4 8 C1.10067643 5.60490662 0.49831724 3.68754757 0 0 Z " fill="#161A32" transform="translate(665,605)"/>
<path d="M0 0 C2.99332739 0.9977758 3.94766315 1.7522025 6 4 C5.67 4.66 5.34 5.32 5 6 C3.02 5.34 1.04 4.68 -1 4 C-0.67 2.68 -0.34 1.36 0 0 Z " fill="#DBDFEC" transform="translate(369,600)"/>
<path d="M0 0 C1.5625 1.75 1.5625 1.75 3 4 C2.6875 6.25 2.6875 6.25 2 8 C0.4375 6.25 0.4375 6.25 -1 4 C-0.6875 1.75 -0.6875 1.75 0 0 Z " fill="#E1E3F0" transform="translate(387,599)"/>
<path d="M0 0 C3.3 0.33 6.6 0.66 10 1 C10 1.33 10 1.66 10 2 C7.36 2.33 4.72 2.66 2 3 C1.34 2.01 0.68 1.02 0 0 Z " fill="#2F3149" transform="translate(350,582)"/>
</svg>
