<?xml version="1.0" encoding="UTF-8"?>
<svg version="1.1" xmlns="http://www.w3.org/2000/svg" width="1024" height="1280">
<path d="M0 0 C337.92 0 675.84 0 1024 0 C1024 422.4 1024 844.8 1024 1280 C686.08 1280 348.16 1280 0 1280 C0 857.6 0 435.2 0 0 Z " fill="#F4F5FA" transform="translate(0,0)"/>
<path d="M0 0 C6.5449309 5.36578343 11.71855187 10.91786842 13.8125 19.3125 C14.2519691 24.03220234 14.23737365 28.74428311 14.22558594 33.48022461 C14.23301575 34.90521505 14.24184292 36.33019878 14.25195312 37.75517273 C14.27125739 40.81076089 14.28192848 43.86621215 14.28612518 46.92185783 C14.29401746 51.76007637 14.32868905 56.59787818 14.3682251 61.43592834 C14.47686177 75.18885107 14.55512141 88.94177138 14.59472656 102.69506836 C14.61686104 110.30109143 14.66390765 117.90655451 14.73782563 125.51225477 C14.78308544 130.3154104 14.79785424 135.11736293 14.78969526 139.92070949 C14.79195437 142.91626159 14.82337438 145.91099572 14.86282349 148.90626717 C14.87527563 150.28762421 14.87600529 151.66914836 14.86368561 153.05050659 C14.78877326 162.41553153 16.21284582 167.60212998 22.8125 174.3125 C23.51375 175.22 24.215 176.1275 24.9375 177.0625 C27.08937648 179.64475177 29.42493013 181.94514058 31.8125 184.3125 C32.79777984 185.29678371 33.78254279 186.28158505 34.7668457 187.2668457 C35.2870076 187.7870076 35.80716949 188.30716949 36.34309387 188.84309387 C43.49956258 195.99956258 50.65603129 203.15603129 57.8125 210.3125 C62.88401439 206.06445316 67.65237285 201.63104164 72.3125 196.9375 C73.30467529 195.94242432 73.30467529 195.94242432 74.31689453 194.92724609 C78.09465659 191.11581247 81.74315537 187.24860731 85.19921875 183.140625 C87.86349502 180.12154196 90.78946187 177.3664867 93.69921875 174.5859375 C99.11751623 168.75701119 100.40191325 164.73546125 100.3425293 157.01391602 C100.35126068 156.09367142 100.35999207 155.17342682 100.36898804 154.22529602 C100.39341903 151.17213513 100.38994006 148.11965301 100.38671875 145.06640625 C100.39920111 142.90069977 100.41354542 140.73500331 100.42964172 138.56932068 C100.46776189 132.8317768 100.48284208 127.0944043 100.49243164 121.35675049 C100.50471225 115.70717455 100.53440957 110.05770823 100.56445312 104.40820312 C100.57016893 103.30142401 100.57588474 102.19464489 100.58177376 101.05432701 C100.63445958 91.0279565 100.69575399 81.00165497 100.76751709 70.97540283 C100.79939265 66.49050674 100.82326829 62.0056609 100.84185791 57.52069092 C100.86663036 52.05293015 100.91737456 46.58594802 100.98645973 41.11857414 C101.00823721 39.08301017 101.02157608 37.04733565 101.02582359 35.01165962 C101.03307828 32.2035188 101.07109397 29.39734829 101.11645508 26.58959961 C101.11153109 25.77817694 101.10660709 24.96675426 101.10153389 24.13074303 C101.31383594 15.36813602 106.00527993 8.45143587 111.78125 2.10546875 C122.10456121 -7.00683864 134.90457447 -6.37338239 147.8125 -5.6875 C158.09759324 -4.67833304 168.08413525 -2.12761061 177.8125 1.3125 C178.7713208 1.64411133 178.7713208 1.64411133 179.74951172 1.98242188 C189.46944806 5.38451484 198.66917789 9.57774983 207.8125 14.3125 C208.75528809 14.79847656 209.69807617 15.28445313 210.66943359 15.78515625 C219.73433882 20.58224845 227.91884402 26.44553508 235.9375 32.8125 C236.53296631 33.28389404 237.12843262 33.75528809 237.74194336 34.2409668 C244.37376275 39.51843233 250.48932916 44.69450382 255.8125 51.3125 C256.9571875 52.4571875 256.9571875 52.4571875 258.125 53.625 C266.01790014 61.51790014 272.52880655 70.12596983 278.8125 79.3125 C279.44285156 80.2303125 280.07320312 81.148125 280.72265625 82.09375 C297.84142619 107.98637697 312.3891105 143.67054597 307.34375 175.24609375 C305.80730321 181.25469817 302.97137762 185.76230566 298.8125 190.3125 C298.15121094 191.03953125 297.48992187 191.7665625 296.80859375 192.515625 C288.01521501 201.26181209 277.05972515 200.60915272 265.20629883 200.59960938 C263.1874826 200.61009768 261.16866637 200.62058652 259.14985025 200.63109589 C257.0023418 200.64040507 254.85487187 200.64492179 252.70734596 200.64802551 C248.21373751 200.65479582 243.72027554 200.67661303 239.22673035 200.70056152 C228.88274425 200.75344586 218.53871318 200.78703608 208.19464874 200.82032013 C198.69848908 200.85106458 189.20239313 200.88595776 179.70631617 200.93663073 C175.24524394 200.95987693 170.78427513 200.97369396 166.32314837 200.98012543 C164.21545458 200.98464812 162.10783699 200.99367076 160.00016785 201.00468445 C157.438942 201.01804411 154.87766611 201.02446705 152.31640625 201.02241516 C130.56881669 201.18032048 119.06159779 215.89954149 104.6875 230.375 C103.43252796 231.63500102 102.17732114 232.89476824 100.921875 234.15429688 C97.88270916 237.20434853 94.84671773 240.2575262 91.8125 243.3125 C93.58665632 247.17470573 95.772675 249.26696882 99 252.0625 C102.33897211 255.00298281 105.51280269 257.95816637 108.375 261.375 C111.75840898 265.40247961 115.58100464 268.80538248 119.5234375 272.27734375 C122.05453376 274.52768701 124.41826853 276.91826853 126.8125 279.3125 C133.73239778 285.69294338 139.1578722 286.64978446 148.30517578 286.9309082 C149.35931231 286.96864255 150.41344883 287.0063769 151.49952888 287.04525471 C163.33393314 287.42831806 175.16928063 287.43342026 187.00866318 287.42003441 C191.03758009 287.41791191 195.06635232 287.42571959 199.09524536 287.43782043 C199.78352728 287.43984236 200.47180919 287.44186429 201.18094814 287.44394749 C202.58443081 287.44811275 203.98791336 287.45231547 205.39139581 287.45655501 C214.72697248 287.48445011 224.06233463 287.50469295 233.39794922 287.48754883 C239.76133623 287.47596117 246.12430466 287.48563864 252.48761666 287.51960641 C255.83366533 287.53664224 259.17832161 287.53990857 262.52447128 287.523489 C266.2420759 287.5065753 269.95779824 287.52680686 273.67529297 287.55541992 C274.76112671 287.54162796 275.84696045 287.527836 276.96569824 287.5136261 C285.90046025 287.64660508 291.79037238 290.76991069 298.43359375 296.62109375 C307.75338428 307.54428911 308.72163003 318.26917629 307.8125 332.3125 C305.68855313 354.49981388 298.16907568 373.78170611 287.8125 393.3125 C287.35746094 394.23546875 286.90242188 395.1584375 286.43359375 396.109375 C278.64459683 411.45486146 266.96322237 426.20091039 254.8125 438.3125 C253.85966865 439.42454481 252.91989179 440.548057 252 441.6875 C235.27287715 461.41895417 209.55000629 474.98469401 185.8125 484.3125 C185.05001953 484.61671875 184.28753906 484.9209375 183.50195312 485.234375 C165.74020698 492.21884891 141.24053252 499.30227584 122.3125 492.875 C114.32988207 488.98036634 107.36941078 482.46375386 103.8125 474.3125 C101.47125029 467.04375406 101.54593411 460.10406558 101.58886719 452.51196289 C101.58939221 451.12638859 101.58895384 449.74081364 101.58763123 448.35523987 C101.58630336 445.38477003 101.59067426 442.41438335 101.59923553 439.44392586 C101.61167704 434.74027037 101.60463723 430.03676693 101.59381104 425.33311462 C101.56542229 411.96235018 101.55291036 398.59171835 101.58251953 385.22094727 C101.59873225 377.82604643 101.59352474 370.43147956 101.56472325 363.0366134 C101.55046813 359.12995675 101.54732529 355.2239956 101.57094574 351.31736946 C101.59316644 347.64224955 101.58746441 343.96820852 101.56096077 340.29312706 C101.55396287 338.31369353 101.57656252 336.33422341 101.6002655 334.35491943 C101.5074961 326.30100865 100.10692795 321.4263482 94.8125 315.3125 C94.05087366 314.40566011 94.05087366 314.40566011 93.27386093 313.48050022 C91.8368044 311.80863224 90.33871681 310.21579286 88.8125 308.625 C88.23870605 308.017771 87.66491211 307.41054199 87.07373047 306.78491211 C77.85121734 297.10472077 68.30770955 287.72387518 58.8125 278.3125 C55.15502286 279.85157898 52.8239269 282.05666089 50.0390625 284.85546875 C49.1315625 285.76490234 48.2240625 286.67433594 47.2890625 287.61132812 C46.82016602 288.08642822 46.35126953 288.56152832 45.86816406 289.05102539 C44.45419249 290.48309387 43.03254401 291.90715585 41.609375 293.33007812 C36.79791961 298.17220144 32.19050479 303.07673565 27.8125 308.3125 C26.14583333 309.97916667 24.47916667 311.64583333 22.8125 313.3125 C21.71516547 314.48707409 20.63230102 315.67529457 19.5625 316.875 C18.81226563 317.71224609 18.81226563 317.71224609 18.046875 318.56640625 C14.47370792 323.62085463 15.44097659 331.02047705 15.26171875 336.91796875 C15.24057196 337.59017141 15.21942516 338.26237408 15.19763756 338.95494652 C14.77803995 352.72454767 14.73693232 366.49382127 14.71384048 380.26886368 C14.70699347 384.00891618 14.69657566 387.74894239 14.68502808 391.48898315 C14.68126097 392.74220808 14.67749386 393.99543301 14.67361259 395.28663445 C14.66592079 397.8440752 14.6581242 400.40151564 14.65022469 402.95895576 C14.63197757 409.48419635 14.62477276 416.00916562 14.63745117 422.53442383 C14.64912395 428.94524465 14.63172937 435.35541519 14.59500694 441.76613426 C14.58643951 444.18248281 14.58839769 446.5988944 14.601511 449.01522255 C14.72288479 473.11012498 14.72288479 473.11012498 7.8125 481.3125 C7.23703934 482.00471146 6.66157867 482.69692291 6.06867981 483.41011047 C1.43299592 488.66256285 -5.19896351 493.11306642 -12.1875 494.3125 C-48.98111513 496.37421119 -84.92560861 482.11823637 -114.1875 460.3125 C-115.074375 459.70277344 -115.96125 459.09304688 -116.875 458.46484375 C-125.0842334 452.57514635 -132.17747757 445.61911426 -139.3125 438.5 C-139.82767181 437.98832275 -140.34284363 437.47664551 -140.87362671 436.94946289 C-142.36247963 435.46621753 -143.84292369 433.97512552 -145.3203125 432.48046875 C-146.18543457 431.60672607 -147.05055664 430.7329834 -147.94189453 429.83276367 C-153.1875 423.94557241 -153.1875 423.94557241 -153.1875 420.3125 C-154.1775 419.9825 -155.1675 419.6525 -156.1875 419.3125 C-157.92079506 417.00927402 -159.50732211 414.73105377 -161.0625 412.3125 C-161.51157715 411.62406006 -161.9606543 410.93562012 -162.42333984 410.22631836 C-165.57096082 405.36290617 -168.54360757 400.46972227 -171.1875 395.3125 C-171.79078125 394.1678125 -172.3940625 393.023125 -173.015625 391.84375 C-184.02139688 370.66343374 -191.57039432 349.16551647 -191.5 325.0625 C-191.51611328 323.94359375 -191.53222656 322.8246875 -191.54882812 321.671875 C-191.55459023 311.89934758 -189.84847769 305.46186927 -183.08984375 298.203125 C-172.90198656 288.07802668 -172.90198656 288.07802668 -165.16719055 288.04075623 C-164.15446579 288.0310379 -163.14174103 288.02131958 -162.09832764 288.01130676 C-160.43957611 288.01042305 -160.43957611 288.01042305 -158.74731445 288.00952148 C-157.57744492 288.00108215 -156.40757538 287.99264282 -155.20225525 287.98394775 C-151.99015615 287.96255652 -148.77815872 287.94986788 -145.56600595 287.9407146 C-142.17971346 287.92874905 -138.79350625 287.90488072 -135.40727234 287.88209534 C-128.96671744 287.84040575 -122.52615443 287.80804064 -116.08552855 287.77962118 C-104.6359965 287.72895033 -93.18654021 287.66533748 -81.73711747 287.59428078 C-77.09911828 287.56595513 -72.46112537 287.54543537 -67.82307434 287.52696228 C-61.77130377 287.49970675 -55.72080077 287.43569018 -49.66959 287.35017014 C-46.16295642 287.31223448 -42.6577751 287.31632513 -39.15097046 287.32034302 C-36.92508405 287.29385522 -34.69922022 287.26537328 -32.47338867 287.23461914 C-30.98011661 287.25257994 -30.98011661 287.25257994 -29.45667744 287.27090359 C-19.98463061 287.05646246 -14.08403428 282.32039898 -7.5625 275.8125 C-7.0041748 275.22605713 -6.44584961 274.63961426 -5.87060547 274.03540039 C-4.19897638 272.32424772 -2.45847887 270.79068387 -0.6328125 269.24609375 C4.59833303 264.70569529 9.43989001 259.79364482 14.3125 254.875 C15.2303125 253.95267578 16.148125 253.03035156 17.09375 252.08007812 C19.33565055 249.82650101 21.575166 247.57060925 23.8125 245.3125 C22.22343477 241.42969309 19.72315297 238.9941731 16.76171875 236.06640625 C16.26589798 235.57341537 15.77007721 235.0804245 15.25923157 234.57249451 C13.67747269 233.00188604 12.08891315 231.43836714 10.5 229.875 C9.44289807 228.82793948 8.38625264 227.78041787 7.33007812 226.73242188 C5.37609322 224.79471204 3.41903087 222.86031937 1.4597168 220.92797852 C-0.32246266 219.16716614 -2.09717144 217.39876382 -3.86474609 215.62329102 C-6.31870855 213.18196721 -8.85252759 210.91735375 -11.5 208.6875 C-12.38300781 207.93210937 -13.26601563 207.17671875 -14.17578125 206.3984375 C-22.02335574 200.96315245 -29.23466335 200.87752092 -38.51318359 200.91186523 C-39.84788118 200.90611385 -41.18257358 200.89902745 -42.51725769 200.89071655 C-45.3780639 200.87566862 -48.23868428 200.86982355 -51.09952927 200.87124443 C-55.63128653 200.8732887 -60.16279644 200.85363976 -64.69448853 200.83106995 C-73.50018814 200.79018508 -82.30586787 200.77151745 -91.11164093 200.75489807 C-102.31263213 200.73251276 -113.5135654 200.69880873 -124.71446288 200.64769894 C-129.21095068 200.62788308 -133.70730836 200.61820439 -138.20383811 200.61674678 C-141.01118314 200.61397836 -143.81845738 200.60310894 -146.62577248 200.59023666 C-148.52982706 200.58398074 -150.43390614 200.58753255 -152.33796692 200.59147644 C-163.75842938 200.52395778 -173.74134681 199.72400249 -182.3125 191.5625 C-192.74170188 180.71453476 -191.53616317 169.45235496 -191.26757812 155.22167969 C-190.4636573 126.01582425 -175.43363209 92.98414913 -156.98828125 70.53515625 C-155.4019532 68.57719386 -153.91481853 66.58263491 -152.42578125 64.55078125 C-149.22306107 60.26407877 -145.71971548 56.33852984 -142.0625 52.4375 C-141.45535156 51.77492188 -140.84820312 51.11234375 -140.22265625 50.4296875 C-139.63097656 49.79546875 -139.03929687 49.16125 -138.4296875 48.5078125 C-137.9022998 47.94078613 -137.37491211 47.37375977 -136.83154297 46.78955078 C-135.06469889 45.2021723 -133.34916393 44.27500127 -131.1875 43.3125 C-131.1875 42.6525 -131.1875 41.9925 -131.1875 41.3125 C-128.10523066 38.36188538 -124.59477168 35.87593222 -121.1875 33.3125 C-120.52266602 32.81186035 -119.85783203 32.3112207 -119.17285156 31.79541016 C-97.66483983 15.70563232 -72.84220716 1.29650338 -46 -3.3125 C-45.32775391 -3.43367188 -44.65550781 -3.55484375 -43.96289062 -3.6796875 C-42.03929854 -4.02432328 -40.11343362 -4.3561995 -38.1875 -4.6875 C-37.21683594 -4.87570312 -36.24617187 -5.06390625 -35.24609375 -5.2578125 C-23.3003174 -6.93601863 -10.19760483 -7.10155782 0 0 Z " fill="#050A30" transform="translate(454.1875,395.6875)"/>
<path d="M0 0 C30.21102768 15.52766064 56.49201665 41.63863951 69.46484375 73.33984375 C71.67397817 80.24075888 72.22318554 87.29954623 69.33984375 94.02734375 C64.29430216 99.07288534 58.95131935 100.97653177 51.87911987 101.02502441 C51.02891266 101.01064331 50.17870544 100.99626221 49.30273438 100.98144531 C48.38473053 100.98202942 47.46672668 100.98261353 46.52090454 100.98321533 C43.51223816 100.9804475 40.50458523 100.94941725 37.49609375 100.91796875 C35.40002992 100.91050173 33.30395907 100.90481098 31.20788574 100.90081787 C25.71029137 100.8855979 20.21312453 100.84634731 14.71569824 100.80200195 C9.09828473 100.76097076 3.48080165 100.74279011 -2.13671875 100.72265625 C-13.14471835 100.67984963 -24.15240164 100.61164236 -35.16015625 100.52734375 C-35.20658821 88.94825475 -35.24208058 77.36918806 -35.26378059 65.79002476 C-35.27419784 60.4127987 -35.28831939 55.03563655 -35.31103516 49.65844727 C-35.332837 44.46483167 -35.34474035 39.27127739 -35.34991074 34.07761955 C-35.35359333 32.10058566 -35.36078441 30.12355496 -35.37161636 28.14654732 C-35.38622889 25.3678893 -35.38813013 22.58948154 -35.38720703 19.81079102 C-35.39799286 18.59697754 -35.39799286 18.59697754 -35.40899658 17.35864258 C-35.38484965 10.59896041 -35.06382562 3.49655083 -30.72265625 -1.97265625 C-22.43300741 -10.06011854 -8.94008288 -4.16614492 0 0 Z " fill="#F3F4FA" transform="translate(637.16015625,449.47265625)"/>
<path d="M0 0 C3.70776706 2.18024778 6.05158541 3.90415109 7.58984375 8.015625 C8.54827354 13.41554304 8.72741348 18.61213757 8.70336914 24.07202148 C8.70351517 24.95086502 8.70366119 25.82970856 8.70381165 26.73518372 C8.70311902 29.61905447 8.69535723 32.50285938 8.6875 35.38671875 C8.68563351 37.39453598 8.6842107 39.40235366 8.68321228 41.41017151 C8.6794053 46.6790799 8.66959063 51.94796047 8.6585083 57.21685791 C8.64825498 62.59964624 8.64370627 67.98243909 8.63867188 73.36523438 C8.62796666 83.91537677 8.61091219 94.46549857 8.58984375 105.015625 C-3.5280024 105.10842482 -15.6457636 105.17944088 -27.76389313 105.22287369 C-33.39122598 105.24372237 -39.01831517 105.27199068 -44.64550781 105.31738281 C-50.07903936 105.36093702 -55.51233698 105.38478256 -60.94602966 105.39513397 C-63.01602357 105.40250812 -65.08600509 105.41690812 -67.15589905 105.43854523 C-70.06189348 105.46770617 -72.96692898 105.47157566 -75.87304688 105.46972656 C-76.72325409 105.48410767 -77.5734613 105.49848877 -78.44943237 105.51330566 C-85.44951038 105.46530754 -90.46099832 103.37495135 -95.91015625 99.015625 C-99.45349783 91.92894184 -97.79742135 84.32893697 -95.41015625 77.078125 C-89.16638201 61.13545425 -78.09555345 47.34408651 -66.41015625 35.015625 C-65.95189453 34.51949707 -65.49363281 34.02336914 -65.02148438 33.51220703 C-52.52341911 20.03072826 -37.93373649 9.98770301 -21.41015625 2.015625 C-20.64316406 1.63535156 -19.87617188 1.25507813 -19.0859375 0.86328125 C-13.14133275 -1.75330948 -6.07892302 -2.48280162 0 0 Z " fill="#F3F4F9" transform="translate(413.41015625,444.984375)"/>
<path d="M0 0 C12.11787509 -0.06960003 24.23570239 -0.12286216 36.35373688 -0.15543652 C41.98101375 -0.17107287 47.60815356 -0.19227423 53.23535156 -0.22631836 C58.6688725 -0.25898395 64.10226184 -0.27686829 69.53587341 -0.28463173 C71.60585094 -0.29016229 73.6758215 -0.30096212 75.7457428 -0.31719017 C78.65161541 -0.33905996 81.55694857 -0.34196291 84.46289062 -0.34057617 C85.31309784 -0.351362 86.16330505 -0.36214783 87.03927612 -0.3732605 C93.16538406 -0.34175638 99.01604797 0.48850704 103.875 4.578125 C106.782038 8.89830647 107.77446269 11.66481261 107 17 C101.91961665 39.65661641 86.79977497 57.73140497 71 74 C70.08734375 74.95261719 69.1746875 75.90523437 68.234375 76.88671875 C64.039039 81.18882228 60.08127052 84.75849984 55 88 C53.82537991 88.77713079 52.65090737 89.55448464 51.4765625 90.33203125 C23.30124824 108.61235645 23.30124824 108.61235645 10 106 C5.25223248 103.34707368 2.51397836 100.68504255 0.91238403 95.43432617 C-0.16832677 90.84100365 -0.26816374 86.43906443 -0.22705078 81.73828125 C-0.22734283 80.84953812 -0.22763489 79.96079498 -0.22793579 79.04512024 C-0.22655258 76.13414433 -0.21103925 73.22343069 -0.1953125 70.3125 C-0.19157878 68.28369283 -0.1887335 66.25488384 -0.18673706 64.22607422 C-0.17912889 58.90617833 -0.15950473 53.58639298 -0.1373291 48.26654053 C-0.11680984 42.83005264 -0.10772237 37.39354676 -0.09765625 31.95703125 C-0.07625607 21.30463914 -0.04215432 10.65232879 0 0 Z " fill="#F3F4F9" transform="translate(602,730)"/>
<path d="M0 0 C0.93721893 -0.00043808 1.87443787 -0.00087616 2.84005737 -0.00132751 C5.92434844 0.00075519 9.00808955 0.02406203 12.09228516 0.04760742 C14.23605045 0.05320521 16.37981958 0.05747445 18.52359009 0.06047058 C24.15593123 0.07190488 29.78803894 0.10136009 35.42028809 0.13458252 C41.17159874 0.16531378 46.92294725 0.17898246 52.67431641 0.1940918 C63.95176251 0.22623098 75.22903564 0.27741039 86.50634766 0.34057617 C86.5528335 11.62435562 86.58829911 22.90811201 86.609972 34.19196796 C86.6203776 39.43237521 86.63447755 44.67271659 86.65722656 49.91308594 C86.67907037 54.97703378 86.69094049 60.04091855 86.69610214 65.1049099 C86.69977728 67.03005146 86.70695352 68.95518986 86.71780777 70.88030434 C86.85540015 96.3115348 86.85540015 96.3115348 82.13134766 102.40307617 C77.01490521 106.17949798 72.87187315 107.20983712 66.50634766 106.34057617 C40.01395094 99.26751674 16.99755489 78.59245267 0.50634766 57.34057617 C-0.05310547 56.63545898 -0.61255859 55.9303418 -1.18896484 55.20385742 C-11.65918757 41.69124013 -21.2914919 27.00434979 -19.49365234 9.34057617 C-15.58949266 0.63129688 -8.58888817 -0.10573947 0 0 Z " fill="#F4F5FA" transform="translate(335.49365234375,729.659423828125)"/>
<path d="M0 0 C1.21988617 -0.00412399 1.21988617 -0.00412399 2.4644165 -0.0083313 C3.3477063 -0.00114075 4.23099609 0.0060498 5.14105225 0.01345825 C6.07797913 0.0131662 7.01490601 0.01287415 7.98022461 0.01257324 C11.07526936 0.01396592 14.17007301 0.02952437 17.26507568 0.04519653 C19.41170114 0.04892688 21.55832829 0.05177375 23.70495605 0.05377197 C29.35370589 0.06140672 35.00235282 0.08105393 40.65106201 0.10317993 C47.4292081 0.12723956 54.20738861 0.13642009 60.98556519 0.14808655 C71.28193192 0.16747833 81.57807286 0.20580214 91.87445068 0.24050903 C91.87445068 29.28050903 91.87445068 58.32050903 91.87445068 88.24050903 C91.54445068 88.24050903 91.21445068 88.24050903 90.87445068 88.24050903 C90.87445068 59.53050903 90.87445068 30.82050903 90.87445068 1.24050903 C59.85445068 1.24050903 28.83445068 1.24050903 -3.12554932 1.24050903 C-3.45554932 2.23050903 -3.78554932 3.22050903 -4.12554932 4.24050903 C-5.44554932 3.58050903 -6.76554932 2.92050903 -8.12554932 2.24050903 C-5.28427209 0.63412463 -3.25786343 -0.00852844 0 0 Z " fill="#D1D7EB" transform="translate(330.12554931640625,729.7594909667969)"/>
<path d="M0 0 C2.06723714 3.10085571 2.24497423 3.72931681 2.1953125 7.23046875 C2.18886719 8.03291016 2.18242188 8.83535156 2.17578125 9.66210938 C2.15902344 10.49548828 2.14226563 11.32886719 2.125 12.1875 C2.11597656 13.03248047 2.10695313 13.87746094 2.09765625 14.74804688 C2.07410703 16.83215243 2.03823647 18.91611217 2 21 C2.66 21 3.32 21 4 21 C4.33 19.68 4.66 18.36 5 17 C5 21.62 5 26.24 5 31 C4.01 30.01 3.02 29.02 2 28 C1.8453125 29.1446875 1.8453125 29.1446875 1.6875 30.3125 C0.94209384 33.22636046 0.15541061 34.02950397 -2 36 C-1.85636473 34.62476865 -1.70996483 33.24982598 -1.5625 31.875 C-1.48128906 31.10929688 -1.40007813 30.34359375 -1.31640625 29.5546875 C-1 27 -1 27 -0.46875 24.375 C0.19197727 19.61776367 0.10474055 14.92092714 0.0625 10.125 C0.05798828 9.15046875 0.05347656 8.1759375 0.04882812 7.171875 C0.03710906 4.78118566 0.02070219 2.3906256 0 0 Z " fill="#E1E3EE" transform="translate(761,707)"/>
<path d="M0 0 C1.32 0.99 2.64 1.98 4 3 C-1.99317721 8.6303335 -7.99050468 13.68255723 -15 18 C-15 17.01 -15 16.02 -15 15 C-14.34 15 -13.68 15 -13 15 C-12.67 14.01 -12.34 13.02 -12 12 C-11.34 12 -10.68 12 -10 12 C-9.35447231 10.70894462 -8.73979798 9.40177853 -8.1640625 8.078125 C-6.85088756 5.73379926 -5.45031915 4.44100079 -3.375 2.75 C-2.74335938 2.22921875 -2.11171875 1.7084375 -1.4609375 1.171875 C-0.73777344 0.59179688 -0.73777344 0.59179688 0 0 Z " fill="#ECEFF6" transform="translate(449,664)"/>
<path d="M0 0 C1.65 0.33 3.3 0.66 5 1 C5.33 1.99 5.66 2.98 6 4 C6.33 3.01 6.66 2.02 7 1 C9.87561839 3.59733274 11.24269096 5.21345482 12 9 C12.66 9.66 13.32 10.32 14 11 C13.01 11 12.02 11 11 11 C10.67 11.66 10.34 12.32 10 13 C6.37 9.37 2.74 5.74 -1 2 C-0.67 1.34 -0.34 0.68 0 0 Z " fill="#EAEEF6" transform="translate(499,591)"/>
<path d="M0 0 C0 0.99 0 1.98 0 3 C0.66 3 1.32 3 2 3 C1.88759583 7.6085709 0.61543768 9.72909798 -2.5625 12.875 C-3.69669738 13.92932432 -4.83892794 14.97534633 -6 16 C-7.57901952 11.26294144 -5.60836132 7.62403879 -4 3 C-3 1 -3 1 0 0 Z " fill="#F2F4F8" transform="translate(534,576)"/>
<path d="M0 0 C2.1385485 2.1385485 2.42655063 3.13275314 3 6 C1.68 6.99 0.36 7.98 -1 9 C-1.66 8.67 -2.32 8.34 -3 8 C-6.24640459 8.97392138 -7.0481053 10.07696847 -8.875 13 C-11.34319375 16.48450883 -12.91734219 17.07212323 -17 18 C-11.72898586 11.58930713 -5.90871848 5.81409488 0 0 Z " fill="#E7EAF4" transform="translate(509,675)"/>
<path d="M0 0 C-3.42346555 3.14958831 -6.44262737 3.56179109 -11 4 C-11 4.66 -11 5.32 -11 6 C-9.35 6 -7.7 6 -6 6 C-6 6.33 -6 6.66 -6 7 C-9.96 7 -13.92 7 -18 7 C-17.67 6.34 -17.34 5.68 -17 5 C-21.95 4.67 -26.9 4.34 -32 4 C-32 3.67 -32 3.34 -32 3 C-31.39526855 2.94465088 -30.79053711 2.88930176 -30.16748047 2.83227539 C-27.40310534 2.57796135 -24.63905593 2.32025918 -21.875 2.0625 C-20.92367187 1.97548828 -19.97234375 1.88847656 -18.9921875 1.79882812 C-12.66209682 1.20538212 -6.35373845 -0.18687466 0 0 Z " fill="#E4E5F2" transform="translate(617,887)"/>
<path d="M0 0 C8.25 0 16.5 0 25 0 C25 0.99 25 1.98 25 3 C18.4 2.67 11.8 2.34 5 2 C5 2.66 5 3.32 5 4 C2 3 2 3 0 0 Z " fill="#151A36" transform="translate(591,683)"/>
<path d="M0 0 C8.25 0 16.5 0 25 0 C25 0.66 25 1.32 25 2 C12.625 2.495 12.625 2.495 0 3 C0 2.01 0 1.02 0 0 Z " fill="#181C38" transform="translate(408,683)"/>
<path d="M0 0 C1.32 0.33 2.64 0.66 4 1 C4 1.66 4 2.32 4 3 C4.66 3 5.32 3 6 3 C6 3.66 6 4.32 6 5 C6.78375 4.95875 7.5675 4.9175 8.375 4.875 C11 5 11 5 13 7 C13.125 9.625 13.125 9.625 13 12 C10 12 10 12 7.51953125 9.8828125 C6.62621094 8.97273437 5.73289062 8.06265625 4.8125 7.125 C3.91144531 6.22007812 3.01039063 5.31515625 2.08203125 4.3828125 C0 2 0 2 0 0 Z " fill="#0D1130" transform="translate(314,831)"/>
<path d="M0 0 C0.99 0.33 1.98 0.66 3 1 C-0.79037089 6.47035213 -4.75027653 10.89962427 -10 15 C-9.91291331 13.54054712 -9.80473093 12.08234132 -9.6875 10.625 C-9.62949219 9.81289063 -9.57148437 9.00078125 -9.51171875 8.1640625 C-9 6 -9 6 -6 4 C-5.67 4.66 -5.34 5.32 -5 6 C-4.67 5.34 -4.34 4.68 -4 4 C-3.01 3.34 -2.02 2.68 -1 2 C-0.67 1.34 -0.34 0.68 0 0 Z " fill="#E9ECF4" transform="translate(682,789)"/>
<path d="M0 0 C0.33 0 0.66 0 1 0 C1.33 8.91 1.66 17.82 2 27 C0.35 27 -1.3 27 -3 27 C-3 24.36 -3 21.72 -3 19 C-2.34 18.67 -1.68 18.34 -1 18 C-0.505 9.09 -0.505 9.09 0 0 Z " fill="#C9CCD5" transform="translate(262,549)"/>
<path d="M0 0 C0.99 0.33 1.98 0.66 3 1 C1.99806563 4.79303725 1.18975773 7.71536341 -1 11 C-1.598125 11.12375 -2.19625 11.2475 -2.8125 11.375 C-6.08368244 12.30962355 -7.73762424 14.54909293 -10 17 C-10.99 16.67 -11.98 16.34 -13 16 C-12.48050781 15.59910156 -11.96101563 15.19820312 -11.42578125 14.78515625 C-6.11810088 10.45856282 -2.91519625 6.18077666 0 0 Z " fill="#DFE1EC" transform="translate(466,868)"/>
<path d="M0 0 C0.5775 0.78375 1.155 1.5675 1.75 2.375 C3.89741768 4.88032062 5.09675884 5.68885883 8 7 C9.75 8.25 9.75 8.25 11 10 C11.1875 13.1875 11.1875 13.1875 11 16 C6.66666667 11.66666667 2.33333333 7.33333333 -2 3 C-1.34 2.01 -0.68 1.02 0 0 Z " fill="#0F1430" transform="translate(676,474)"/>
<path d="M0 0 C0.66 0.66 1.32 1.32 2 2 C-2.03523352 6.81123996 -6.04467233 11.13242719 -11 15 C-11.33 14.01 -11.66 13.02 -12 12 C-11.01 12 -10.02 12 -9 12 C-8.67 11.01 -8.34 10.02 -8 9 C-7.34 9 -6.68 9 -6 9 C-6 8.01 -6 7.02 -6 6 C-6.99 6 -7.98 6 -9 6 C-8.67 5.34 -8.34 4.68 -8 4 C-7.01 4.33 -6.02 4.66 -5 5 C-5 4.34 -5 3.68 -5 3 C-3.35 3 -1.7 3 0 3 C0 2.01 0 1.02 0 0 Z " fill="#DDE0EA" transform="translate(550,564)"/>
<path d="M0 0 C0 3.69418201 -1.28179295 5.77836178 -3 9 C-3.99 9 -4.98 9 -6 9 C-6.268125 9.61875 -6.53625 10.2375 -6.8125 10.875 C-8 13 -8 13 -11 15 C-11.33 14.01 -11.66 13.02 -12 12 C-8.04 8.04 -4.08 4.08 0 0 Z " fill="#DDDFEB" transform="translate(566,618)"/>
<path d="M0 0 C-4.03454936 3.31409411 -7.16408185 4.13454227 -12.328125 4.09765625 C-13.12734375 4.09443359 -13.9265625 4.09121094 -14.75 4.08789062 C-15.575 4.07951172 -16.4 4.07113281 -17.25 4.0625 C-18.09046875 4.05798828 -18.9309375 4.05347656 -19.796875 4.04882812 C-21.86461401 4.03707961 -23.93231624 4.01914522 -26 4 C-26 3.67 -26 3.34 -26 3 C-18.08 2.505 -18.08 2.505 -10 2 C-10 1.34 -10 0.68 -10 0 C-6.42355152 -1.2380014 -3.66305234 -0.74926071 0 0 Z " fill="#292C44" transform="translate(450,886)"/>
<path d="M0 0 C0.99 1.32 1.98 2.64 3 4 C1.35 7.3 -0.3 10.6 -2 14 C-2.99 13.67 -3.98 13.34 -5 13 C-4.67 10.69 -4.34 8.38 -4 6 C-3.34 6 -2.68 6 -2 6 C-1.34 4.02 -0.68 2.04 0 0 Z " fill="#EAECF5" transform="translate(560,398)"/>
<path d="M0 0 C2.33965571 2.22723982 4.27099166 4.58956647 6.1875 7.1875 C6.71730469 7.90292969 7.24710937 8.61835937 7.79296875 9.35546875 C8.39044922 10.16951172 8.39044922 10.16951172 9 11 C6.50935112 11.68707555 4.62113708 12 2 12 C2 11.01 2 10.02 2 9 C1.34 9 0.68 9 0 9 C0.33 8.34 0.66 7.68 1 7 C1 4.37886292 0.68707555 2.49064888 0 0 Z " fill="#1E2242" transform="translate(328,776)"/>
<path d="M0 0 C0.33 0.99 0.66 1.98 1 3 C1.66 3 2.32 3 3 3 C3.33 2.34 3.66 1.68 4 1 C5.61511451 5.54250956 6.56221947 8.3133416 5 13 C3.96387729 11.59447701 2.94655075 10.17508306 1.9375 8.75 C1.36902344 7.96109375 0.80054688 7.1721875 0.21484375 6.359375 C-1 4 -1 4 -0.68359375 1.703125 C-0.45800781 1.14109375 -0.23242188 0.5790625 0 0 Z " fill="#101436" transform="translate(689,489)"/>
<path d="M0 0 C7.48291572 6.15034169 7.48291572 6.15034169 10 10 C8.35 9.67 6.7 9.34 5 9 C5 8.34 5 7.68 5 7 C2.03 6.505 2.03 6.505 -1 6 C-0.67 5.01 -0.34 4.02 0 3 C-0.66 2.67 -1.32 2.34 -2 2 C-1.34 2 -0.68 2 0 2 C0 1.34 0 0.68 0 0 Z " fill="#DFE3EB" transform="translate(670,473)"/>
<path d="M0 0 C2.96404505 2.80804268 5.44499019 5.18315774 7 9 C6.34 9.66 5.68 10.32 5 11 C4.01 11 3.02 11 2 11 C1.46770674 9.73392393 0.94955456 8.46189588 0.4375 7.1875 C0.14746094 6.47980469 -0.14257812 5.77210938 -0.44140625 5.04296875 C-1 3 -1 3 0 0 Z " fill="#181A38" transform="translate(721,460)"/>
<path d="M0 0 C5.94 2.475 5.94 2.475 12 5 C9.66306776 5.77897741 7.38357723 6.40410569 5 7 C4.01 7.33 3.02 7.66 2 8 C0 2.25 0 2.25 0 0 Z " fill="#E1E3EE" transform="translate(367,872)"/>
<path d="M0 0 C2 2 2 2 2 5 C2.99 4.67 3.98 4.34 5 4 C4.625 6.9375 4.625 6.9375 4 10 C3.01 10.495 3.01 10.495 2 11 C1.67 10.01 1.34 9.02 1 8 C0.01 8.495 0.01 8.495 -1 9 C-1.80967438 6.08517222 -2.21845993 4.53886783 -1.0625 1.6875 C-0.711875 1.130625 -0.36125 0.57375 0 0 Z " fill="#101537" transform="translate(266,700)"/>
<path d="M0 0 C0.598125 0.165 1.19625 0.33 1.8125 0.5 C4.11344336 1.1114124 4.11344336 1.1114124 7 1 C6.04578192 2.14926266 5.08647955 3.29430541 4.125 4.4375 C3.59132813 5.07558594 3.05765625 5.71367188 2.5078125 6.37109375 C1 8 1 8 -1 9 C-1.33 8.01 -1.66 7.02 -2 6 C-1.34 5.01 -0.68 4.02 0 3 C0 2.01 0 1.02 0 0 Z " fill="#E4E6F1" transform="translate(461,650)"/>
<path d="M0 0 C-0.875 3.875 -0.875 3.875 -2 5 C-1.34 5.66 -0.68 6.32 0 7 C-8.1147541 8.44262295 -8.1147541 8.44262295 -11 7 C-9.54634731 5.82750647 -8.08692581 4.66216184 -6.625 3.5 C-5.40683594 2.52546875 -5.40683594 2.52546875 -4.1640625 1.53125 C-2 0 -2 0 0 0 Z " fill="#DDE2EA" transform="translate(589,599)"/>
<path d="M0 0 C4.59306496 1.4859916 7.43569245 3.85014682 11 7 C9.02 7.99 9.02 7.99 7 9 C6.34 8.01 5.68 7.02 5 6 C4.01 5.67 3.02 5.34 2 5 C1.67 4.67 1.34 4.34 1 4 C0.01 3.67 -0.98 3.34 -2 3 C-1.34 2.01 -0.68 1.02 0 0 Z " fill="#E6E7F2" transform="translate(330,849)"/>
<path d="M0 0 C2.475 0.99 2.475 0.99 5 2 C5 3.32 5 4.64 5 6 C6.32 6.66 7.64 7.32 9 8 C8.67 9.32 8.34 10.64 8 12 C6.68141572 10.73548068 5.37032369 9.46314525 4.0625 8.1875 C3.33160156 7.47980469 2.60070312 6.77210938 1.84765625 6.04296875 C0 4 0 4 -1 1 C-0.67 0.67 -0.34 0.34 0 0 Z " fill="#DCDFEA" transform="translate(343,792)"/>
<path d="M0 0 C1 3 1 3 0.1875 5 C-0.82159687 6.69953157 -1.90361657 8.35542486 -3 10 C-4.32 9.67 -5.64 9.34 -7 9 C-5.44499019 5.18315774 -2.96404505 2.80804268 0 0 Z " fill="#111634" transform="translate(274,691)"/>
<path d="M0 0 C0.33 0.66 0.66 1.32 1 2 C0.67 2.99 0.34 3.98 0 5 C-0.22325814 7.05893621 -0.40705759 9.12233653 -0.5625 11.1875 C-0.64628906 12.27417969 -0.73007812 13.36085938 -0.81640625 14.48046875 C-0.87699219 15.31191406 -0.93757813 16.14335938 -1 17 C-1.99 17.33 -2.98 17.66 -4 18 C-4.625 16.25 -4.625 16.25 -5 14 C-4.68804687 13.39027344 -4.37609375 12.78054688 -4.0546875 12.15234375 C-2.56790138 9.11819875 -2.56188705 6.2578247 -2.34375 2.92578125 C-2.2303125 2.29027344 -2.116875 1.65476562 -2 1 C-1.34 0.67 -0.68 0.34 0 0 Z " fill="#333857" transform="translate(317,524)"/>
<path d="M0 0 C0.66 0.33 1.32 0.66 2 1 C-2.29 3.64 -6.58 6.28 -11 9 C-11.99 8.34 -12.98 7.68 -14 7 C-9.25 4.125 -9.25 4.125 -7 3 C-6.34 3.33 -5.68 3.66 -5 4 C-5 3.34 -5 2.68 -5 2 C-2.625 0.9375 -2.625 0.9375 0 0 Z " fill="#1A1E38" transform="translate(678,858)"/>
<path d="M0 0 C-1.5277867 3.43752007 -3.50181056 6.18953688 -6 9 C-6.66 9 -7.32 9 -8 9 C-8.33 7.35 -8.66 5.7 -9 4 C-2.25 0 -2.25 0 0 0 Z " fill="#151935" transform="translate(717,824)"/>
<path d="M0 0 C1.32 0 2.64 0 4 0 C4.6875 2.3125 4.6875 2.3125 5 5 C3.5625 6.8125 3.5625 6.8125 2 8 C2 7.34 2 6.68 2 6 C1.34 6 0.68 6 0 6 C0 5.34 0 4.68 0 4 C-0.66 4 -1.32 4 -2 4 C-2 3.34 -2 2.68 -2 2 C-1.34 2 -0.68 2 0 2 C0 1.34 0 0.68 0 0 Z " fill="#0D1237" transform="translate(331,489)"/>
<path d="M0 0 C2.475 0.99 2.475 0.99 5 2 C5 1.34 5 0.68 5 0 C5.66 0 6.32 0 7 0 C6.67 2.31 6.34 4.62 6 7 C5.01 7 4.02 7 3 7 C0.64276511 4.46815512 0 3.52809907 0 0 Z " fill="#EAEDF6" transform="translate(727,465)"/>
<path d="M0 0 C0.66 0.33 1.32 0.66 2 1 C1.67 2.98 1.34 4.96 1 7 C-0.32 6.67 -1.64 6.34 -3 6 C-3.33 6.66 -3.66 7.32 -4 8 C-5.32 7.67 -6.64 7.34 -8 7 C-6.68 6.34 -5.36 5.68 -4 5 C-4 4.34 -4 3.68 -4 3 C-2 1.375 -2 1.375 0 0 Z " fill="#171A38" transform="translate(327,434)"/>
<path d="M0 0 C4.7517398 0.43197635 6.92000054 1.32769295 10 5 C9.01 6.32 8.02 7.64 7 9 C4 5.375 4 5.375 4 2 C2.68 1.67 1.36 1.34 0 1 C0 0.67 0 0.34 0 0 Z " fill="#141936" transform="translate(740,686)"/>
<path d="M0 0 C3.21043882 1.38188453 5.04936365 2.92421903 7.25 5.625 C7.77078125 6.25664063 8.2915625 6.88828125 8.828125 7.5390625 C9.40820312 8.26222656 9.40820312 8.26222656 10 9 C3.80644178 7.50895821 2.48292417 6.22438626 -1 1 C-0.67 0.67 -0.34 0.34 0 0 Z " fill="#D7D9E9" transform="translate(511,673)"/>
<path d="M0 0 C0.99 0.66 1.98 1.32 3 2 C0.36 4.64 -2.28 7.28 -5 10 C-5.66 9.01 -6.32 8.02 -7 7 C-4.69 4.69 -2.38 2.38 0 0 Z " fill="#E2E4F0" transform="translate(474,641)"/>
<path d="M0 0 C2.31 1.98 4.62 3.96 7 6 C6.34 6.66 5.68 7.32 5 8 C3 7.9375 3 7.9375 1 7 C-0.3125 4.5625 -0.3125 4.5625 -1 2 C-0.67 1.34 -0.34 0.68 0 0 Z " fill="#E7EBF2" transform="translate(561,876)"/>
<path d="M0 0 C2.69082872 0.17635452 5.32851446 0.61835921 8 1 C8 1.66 8 2.32 8 3 C4.04 4.98 4.04 4.98 0 7 C-0.33 6.34 -0.66 5.68 -1 5 C-0.01 4.67 0.98 4.34 2 4 C1.01 3.01 0.02 2.02 -1 1 C-0.67 0.67 -0.34 0.34 0 0 Z " fill="#ECEDF5" transform="translate(645,818)"/>
<path d="M0 0 C0.33 0.99 0.66 1.98 1 3 C-0.28965176 4.37562854 -1.62689293 5.70766393 -3 7 C-3.66 7 -4.32 7 -5 7 C-5 7.66 -5 8.32 -5 9 C-5.66 9 -6.32 9 -7 9 C-7.33 9.99 -7.66 10.98 -8 12 C-8.66 11.34 -9.32 10.68 -10 10 C-6.7 6.7 -3.4 3.4 0 0 Z " fill="#1A1E38" transform="translate(679,797)"/>
<path d="M0 0 C1.98 1.65 3.96 3.3 6 5 C5.01 6.485 5.01 6.485 4 8 C2.68 7.67 1.36 7.34 0 7 C0 5.68 0 4.36 0 3 C-0.66 2.67 -1.32 2.34 -2 2 C-1.34 2 -0.68 2 0 2 C0 1.34 0 0.68 0 0 Z " fill="#E3E4EE" transform="translate(523,684)"/>
<path d="M0 0 C6.75 1.875 6.75 1.875 9 3 C9 4.98 9 6.96 9 9 C7.87105124 8.06725891 6.74699124 7.12859878 5.625 6.1875 C4.99851562 5.66542969 4.37203125 5.14335938 3.7265625 4.60546875 C2 3 2 3 0 0 Z " fill="#CED0DE" transform="translate(546,641)"/>
<path d="M0 0 C1.66666667 1.66666667 3.33333333 3.33333333 5 5 C5.763125 5.721875 6.52625 6.44375 7.3125 7.1875 C9 9 9 9 9 11 C8.01 11 7.02 11 6 11 C6 10.34 6 9.68 6 9 C5.01 8.67 4.02 8.34 3 8 C0 2.77777778 0 2.77777778 0 0 Z M2 9 C2.99 9.495 2.99 9.495 4 10 C3.01 10.495 3.01 10.495 2 11 C2 10.34 2 9.68 2 9 Z " fill="#1C203B" transform="translate(711,448)"/>
<path d="M0 0 C0.66 0.66 1.32 1.32 2 2 C1.625 4.125 1.625 4.125 1 6 C-0.65 6 -2.3 6 -4 6 C-3.01 5.34 -2.02 4.68 -1 4 C-2.98 3.34 -4.96 2.68 -7 2 C-5.26578631 -1.46842738 -3.40984787 -1.13661596 0 0 Z " fill="#161B3E" transform="translate(414,882)"/>
<path d="M0 0 C0 2.66666667 0 5.33333333 0 8 C-0.78375 8.144375 -1.5675 8.28875 -2.375 8.4375 C-4.96421018 8.87798925 -4.96421018 8.87798925 -7 10 C-7.66 9.34 -8.32 8.68 -9 8 C-6.03 5.36 -3.06 2.72 0 0 Z " fill="#171B39" transform="translate(447,671)"/>
<path d="M0 0 C0.33 0.66 0.66 1.32 1 2 C1.66 2.33 2.32 2.66 3 3 C0.69 5.31 -1.62 7.62 -4 10 C-5 7 -5 7 -4.25 4.4375 C-3 2 -3 2 0 0 Z " fill="#D7DAE6" transform="translate(532,582)"/>
<path d="M0 0 C0.33 0 0.66 0 1 0 C0.58525633 5.28798182 -0.35224614 8.11690718 -4 12 C-4.66 10.02 -5.32 8.04 -6 6 C-5.34 5.67 -4.68 5.34 -4 5 C-4 5.66 -4 6.32 -4 7 C-3.34 7 -2.68 7 -2 7 C-1.855625 6.21625 -1.71125 5.4325 -1.5625 4.625 C-1 2 -1 2 0 0 Z " fill="#101630" transform="translate(759,571)"/>
<path d="M0 0 C0.66 0 1.32 0 2 0 C2 0.66 2 1.32 2 2 C2.66 2.33 3.32 2.66 4 3 C2.90554162 3.86657116 1.79902219 4.71792724 0.6875 5.5625 C0.07261719 6.03816406 -0.54226563 6.51382812 -1.17578125 7.00390625 C-1.77777344 7.33261719 -2.37976563 7.66132813 -3 8 C-3.99 7.67 -4.98 7.34 -6 7 C-6 6.34 -6 5.68 -6 5 C-4.01924973 3.63823419 -2.01920337 2.30406884 0 1 C0 0.67 0 0.34 0 0 Z " fill="#161A3B" transform="translate(369,456)"/>
<path d="M0 0 C0.33 1.98 0.66 3.96 1 6 C-2.91211733 4.84414715 -5.8745041 3.64465038 -9 1 C-5.92677456 0.08941469 -3.19902639 -0.08886184 0 0 Z " fill="#D9DCE6" transform="translate(657,402)"/>
<path d="M0 0 C0.33 0 0.66 0 1 0 C1.1799928 5.21979128 0.97094808 9.07262981 -1 14 C-2.20628008 11.66785852 -3.1654738 9.50357861 -4 7 C-2.92745123 4.48301368 -1.45196548 2.33194455 0 0 Z " fill="#222743" transform="translate(757,744)"/>
<path d="M0 0 C0.66 0.66 1.32 1.32 2 2 C1.625 4.625 1.625 4.625 1 7 C0.67 6.34 0.34 5.68 0 5 C-0.66 5 -1.32 5 -2 5 C-2.33 5.66 -2.66 6.32 -3 7 C-5.0625 8.125 -5.0625 8.125 -7 9 C-5.03681826 5.46627288 -2.95929119 2.75520215 0 0 Z " fill="#DDE2EC" transform="translate(478,707)"/>
<path d="M0 0 C0.26218749 3.14624993 0.24754367 4.61837017 -1.5 7.3125 C-2.2425 8.1478125 -2.2425 8.1478125 -3 9 C-4.32 8.67 -5.64 8.34 -7 8 C-6.08283206 5.24849619 -3.42975032 0 0 0 Z " fill="#D7D9E3" transform="translate(486,699)"/>
<path d="M0 0 C1.27208622 0.62244599 2.54261882 1.24806767 3.8125 1.875 C4.52019531 2.22304688 5.22789062 2.57109375 5.95703125 2.9296875 C8 4 8 4 11 6 C8.69 6.33 6.38 6.66 4 7 C3.67 6.01 3.34 5.02 3 4 C0.98491642 3.26676204 0.98491642 3.26676204 -1 3 C-0.67 2.01 -0.34 1.02 0 0 Z " fill="#DEE0EB" transform="translate(274,589)"/>
<path d="M0 0 C0.99 0 1.98 0 3 0 C3 0.66 3 1.32 3 2 C3.66 2.66 4.32 3.32 5 4 C4.01 4.495 4.01 4.495 3 5 C2.13375 4.54625 1.2675 4.0925 0.375 3.625 C-3.60954934 1.70651328 -6.6223831 1.37738077 -11 1 C-11 0.67 -11 0.34 -11 0 C-3.375 -1.125 -3.375 -1.125 0 0 Z " fill="#3C3E5D" transform="translate(414,443)"/>
<path d="M0 0 C8.415 1.485 8.415 1.485 17 3 C17 3.33 17 3.66 17 4 C5.47835991 5.70159453 5.47835991 5.70159453 0 2 C0 1.34 0 0.68 0 0 Z " fill="#292E48" transform="translate(393,833)"/>
<path d="M0 0 C0.99 1.32 1.98 2.64 3 4 C1.71349294 4.69710731 0.42059335 5.38242876 -0.875 6.0625 C-1.95394531 6.63677734 -1.95394531 6.63677734 -3.0546875 7.22265625 C-3.69664062 7.47917969 -4.33859375 7.73570312 -5 8 C-5.66 7.67 -6.32 7.34 -7 7 C-2.25 1.125 -2.25 1.125 0 0 Z " fill="#DFE2ED" transform="translate(373,400)"/>
<path d="M0 0 C6.57142857 5.14285714 6.57142857 5.14285714 8 9 C5.5625 8.1875 5.5625 8.1875 3 7 C2.67 6.01 2.34 5.02 2 4 C1.01 4 0.02 4 -1 4 C-0.67 2.68 -0.34 1.36 0 0 Z " fill="#D3D6E2" transform="translate(539,700)"/>
<path d="M0 0 C0 4.13122742 -1.4277594 5.81854452 -4 9 C-7.25 10.375 -7.25 10.375 -10 11 C-6.79239749 7.19364503 -3.59253891 3.45436433 0 0 Z " fill="#D0D2E1" transform="translate(502,682)"/>
<path d="M0 0 C0 1.32 0 2.64 0 4 C0.66 4.33 1.32 4.66 2 5 C1.01 5.66 0.02 6.32 -1 7 C-2.65 5.02 -4.3 3.04 -6 1 C-4 0 -4 0 0 0 Z " fill="#E2E6F0" transform="translate(494,581)"/>
<path d="M0 0 C0.66 1.32 1.32 2.64 2 4 C-1.51187196 6.40814077 -3.72656908 7.36629408 -8 7 C-3.25 3 -3.25 3 -1 3 C-0.67 2.01 -0.34 1.02 0 0 Z " fill="#1D1F3F" transform="translate(419,829)"/>
<path d="M0 0 C2.00720923 0.28674418 4.0085944 0.61866701 6 1 C4.68 3.31 3.36 5.62 2 8 C0.68 7.01 -0.64 6.02 -2 5 C-1.67 4.34 -1.34 3.68 -1 3 C-0.34 3.33 0.32 3.66 1 4 C1 3.34 1 2.68 1 2 C0.34 1.67 -0.32 1.34 -1 1 C-0.67 0.67 -0.34 0.34 0 0 Z " fill="#111535" transform="translate(315,731)"/>
<path d="M0 0 C2.16874252 0.50603992 3.99967627 0.99983813 6 2 C6.33 1.34 6.66 0.68 7 0 C7.33 0.99 7.66 1.98 8 3 C4.98509443 4.00496852 2.95818308 4.10335303 -0.1875 4.0625 C-1.53908203 4.04896484 -1.53908203 4.04896484 -2.91796875 4.03515625 C-3.60503906 4.02355469 -4.29210937 4.01195312 -5 4 C-4.360625 3.71125 -3.72125 3.4225 -3.0625 3.125 C-0.84793921 2.17176549 -0.84793921 2.17176549 0 0 Z " fill="#EBECF9" transform="translate(693,545)"/>
<path d="M0 0 C0.99 0.33 1.98 0.66 3 1 C2 4 2 4 0.15234375 5.16796875 C-0.57855469 5.50441406 -1.30945313 5.84085938 -2.0625 6.1875 C-2.79597656 6.53167969 -3.52945312 6.87585938 -4.28515625 7.23046875 C-5.13400391 7.61138672 -5.13400391 7.61138672 -6 8 C-5.67 7.01 -5.34 6.02 -5 5 C-4.34 5 -3.68 5 -3 5 C-2.67 4.01 -2.34 3.02 -2 2 C-1.34 2 -0.68 2 0 2 C0 1.34 0 0.68 0 0 Z " fill="#DEE1ED" transform="translate(439,674)"/>
<path d="M0 0 C0.99 1.32 1.98 2.64 3 4 C2.34 5.32 1.68 6.64 1 8 C0.34 7.67 -0.32 7.34 -1 7 C-1 6.01 -1 5.02 -1 4 C-1.66 3.67 -2.32 3.34 -3 3 C-2.01 2.01 -1.02 1.02 0 0 Z " fill="#1B2041" transform="translate(684,791)"/>
<path d="M0 0 C2.3125 -0.25 2.3125 -0.25 5 0 C6.8125 2 6.8125 2 8 4 C7.67 4.66 7.34 5.32 7 6 C3.63279613 4.60667426 2.0140476 3.0210714 0 0 Z " fill="#141937" transform="translate(272,586)"/>
<path d="M0 0 C2.375 0.25 2.375 0.25 5 1 C6.3125 3.0625 6.3125 3.0625 7 5 C5.02 5.99 5.02 5.99 3 7 C0.64046906 4.64046906 0.50858587 3.22104383 0 0 Z " fill="#E6E9F2" transform="translate(337,417)"/>
<path d="M0 0 C0.99 0 1.98 0 3 0 C4.95216435 1.95216435 5.84826645 3.53199953 7 6 C4.36 5.34 1.72 4.68 -1 4 C-0.67 2.68 -0.34 1.36 0 0 Z " fill="#E8EDF3" transform="translate(627,392)"/>
<path d="M0 0 C2.97 0.33 5.94 0.66 9 1 C6.37801226 3.15377564 4.35595828 4.40072174 1 5 C0.67 3.35 0.34 1.7 0 0 Z " fill="#E4E4F1" transform="translate(634,825)"/>
<path d="M0 0 C1.125 1.75 1.125 1.75 2 4 C1.17133982 6.8174446 0.41463847 7.75609502 -2.125 9.25 C-2.74375 9.4975 -3.3625 9.745 -4 10 C-2.66666667 6.66666667 -1.33333333 3.33333333 0 0 Z " fill="#D7DAE8" transform="translate(747,777)"/>
<path d="M0 0 C2.50298434 2.93828597 3.46930939 5.17902761 4 9 C2.35 8.67 0.7 8.34 -1 8 C-1.33 6.68 -1.66 5.36 -2 4 C-1.34 4 -0.68 4 0 4 C0 2.68 0 1.36 0 0 Z " fill="#D4D7E4" transform="translate(275,775)"/>
<path d="M0 0 C0.33 0 0.66 0 1 0 C1.08078641 2.12438339 1.13909141 4.2496323 1.1875 6.375 C1.22230469 7.55835938 1.25710938 8.74171875 1.29296875 9.9609375 C1.19628906 10.96382812 1.09960938 11.96671875 1 13 C0.01 13.66 -0.98 14.32 -2 15 C-1.47462276 9.9697924 -0.89405214 4.98114761 0 0 Z " fill="#B9BDCD" transform="translate(761,728)"/>
<path d="M0 0 C1.98 1.65 3.96 3.3 6 5 C5.67 5.66 5.34 6.32 5 7 C3.02 6.34 1.04 5.68 -1 5 C-0.67 3.35 -0.34 1.7 0 0 Z " fill="#E1E2ED" transform="translate(462,623)"/>
<path d="M0 0 C2.66666667 2.66666667 5.33333333 5.33333333 8 8 C6.68 8.33 5.36 8.66 4 9 C3.67 8.01 3.34 7.02 3 6 C2.01 5.34 1.02 4.68 0 4 C0 2.68 0 1.36 0 0 Z " fill="#DADCE8" transform="translate(445,606)"/>
<path d="M0 0 C1.9451 2.91765 2.45276317 4.62537285 3 8 C2.01 8 1.02 8 0 8 C-1.4606285 5.35261084 -2 4.10551666 -2 1 C-1.34 0.67 -0.68 0.34 0 0 Z " fill="#141735" transform="translate(701,506)"/>
<path d="M0 0 C-2.48434437 2.34290892 -3.77731593 2.97982934 -7.234375 3.29296875 C-8.39453125 3.25816406 -9.5546875 3.22335937 -10.75 3.1875 C-11.92046875 3.16042969 -13.0909375 3.13335938 -14.296875 3.10546875 C-15.18890625 3.07066406 -16.0809375 3.03585937 -17 3 C-17 2.67 -17 2.34 -17 2 C-15.10507994 1.66151348 -13.20901534 1.32943089 -11.3125 1 C-9.72888672 0.7215625 -9.72888672 0.7215625 -8.11328125 0.4375 C-5.35095938 0.04931926 -2.78257957 -0.08259976 0 0 Z " fill="#BCBFD2" transform="translate(617,887)"/>
<path d="M0 0 C0.66 1.32 1.32 2.64 2 4 C1.34 4 0.68 4 0 4 C0 4.66 0 5.32 0 6 C-2.97 5.505 -2.97 5.505 -6 5 C-5.195625 4.360625 -4.39125 3.72125 -3.5625 3.0625 C-1.7249496 1.59396498 -1.7249496 1.59396498 0 0 Z " fill="#161A3A" transform="translate(657,817)"/>
<path d="M0 0 C0.33 0.99 0.66 1.98 1 3 C0.2884375 3.928125 0.2884375 3.928125 -0.4375 4.875 C-2.3328954 7.45273775 -2.26043988 8.87472142 -2 12 C-2.66 12 -3.32 12 -4 12 C-4 11.34 -4 10.68 -4 10 C-4.66 9.67 -5.32 9.34 -6 9 C-4.02 6.03 -2.04 3.06 0 0 Z " fill="#272A46" transform="translate(697,773)"/>
<path d="M0 0 C0.66 0.33 1.32 0.66 2 1 C2 2.98 2 4.96 2 7 C1.01 7 0.02 7 -1 7 C-1.66 6.01 -2.32 5.02 -3 4 C-2.34 4 -1.68 4 -1 4 C-0.67 2.68 -0.34 1.36 0 0 Z " fill="#DFE2EB" transform="translate(570,658)"/>
<path d="M0 0 C0.99 0.33 1.98 0.66 3 1 C-0.465 3.97 -0.465 3.97 -4 7 C-4.66 6.34 -5.32 5.68 -6 5 C-5.34 5 -4.68 5 -4 5 C-3.67 4.01 -3.34 3.02 -3 2 C-2.01 1.34 -1.02 0.68 0 0 Z " fill="#141935" transform="translate(752,583)"/>
<path d="M0 0 C0.33 1.32 0.66 2.64 1 4 C0.01 4.495 0.01 4.495 -1 5 C-1.33 5.99 -1.66 6.98 -2 8 C-3.32 7.34 -4.64 6.68 -6 6 C-4.02 4.02 -2.04 2.04 0 0 Z " fill="#DADCE7" transform="translate(350,477)"/>
<path d="M0 0 C0.66 0.33 1.32 0.66 2 1 C1.42655063 3.86724686 1.1385485 4.8614515 -1 7 C-1.99 6.34 -2.98 5.68 -4 5 C-3.34 3.68 -2.68 2.36 -2 1 C-1.67 1.33 -1.34 1.66 -1 2 C-0.67 1.34 -0.34 0.68 0 0 Z " fill="#E8ECF5" transform="translate(294,465)"/>
<path d="M0 0 C3.875 1.875 3.875 1.875 5 3 C5.36162029 4.32594105 5.69728039 5.65938457 6 7 C5.01 7 4.02 7 3 7 C0.8125 4 0.8125 4 -1 1 C-0.67 0.67 -0.34 0.34 0 0 Z " fill="#E1E1EF" transform="translate(721,457)"/>
<path d="M0 0 C0.66 0.33 1.32 0.66 2 1 C2 4.59857954 1.04169485 6.09451118 -1 9 C-1.66 9 -2.32 9 -3 9 C-2.30058404 5.85262818 -1.23921302 2.97411124 0 0 Z " fill="#111433" transform="translate(605,444)"/>
<path d="M0 0 C7.75 0.75 7.75 0.75 10 3 C7.69 2.67 5.38 2.34 3 2 C3 2.66 3 3.32 3 4 C2.01 3.67 1.02 3.34 0 3 C0 2.01 0 1.02 0 0 Z " fill="#0E122C" transform="translate(440,391)"/>
<path d="M0 0 C2.93200474 2.85276137 5.64315404 5.65079784 8 9 C4.74488211 8.43877278 3.00159929 7.66879905 1 5 C0.3125 2.3125 0.3125 2.3125 0 0 Z " fill="#1A1D3B" transform="translate(341,793)"/>
<path d="M0 0 C0.66 0.99 1.32 1.98 2 3 C0.625 5 0.625 5 -1 7 C-1.66 7 -2.32 7 -3 7 C-3.33 6.01 -3.66 5.02 -4 4 C-2.68 2.68 -1.36 1.36 0 0 Z " fill="#E0E6EE" transform="translate(751,587)"/>
<path d="M0 0 C1.67542976 0.28604898 3.34385343 0.61781233 5 1 C4.67 2.65 4.34 4.3 4 6 C2.35 4.35 0.7 2.7 -1 1 C-0.67 0.67 -0.34 0.34 0 0 Z " fill="#DEE2EC" transform="translate(499,591)"/>
<path d="M0 0 C1.9375 0.6875 1.9375 0.6875 2.9375 2.6875 C2.6075 3.3475 2.2775 4.0075 1.9375 4.6875 C-0.5375 3.6975 -0.5375 3.6975 -3.0625 2.6875 C-3.3925 3.3475 -3.7225 4.0075 -4.0625 4.6875 C-4.0625 3.3675 -4.0625 2.0475 -4.0625 0.6875 C-2.0625 -0.3125 -2.0625 -0.3125 0 0 Z " fill="#12173A" transform="translate(317.0625,543.3125)"/>
<path d="M0 0 C0.66 0 1.32 0 2 0 C0.7508258 3.45925163 -0.67527795 6.14693203 -3 9 C-3.33 7.35 -3.66 5.7 -4 4 C-3.34 4 -2.68 4 -2 4 C-1.34 2.68 -0.68 1.36 0 0 Z " fill="#161935" transform="translate(325,505)"/>
<path d="M0 0 C1.32 0 2.64 0 4 0 C3.25 4.75 3.25 4.75 1 7 C0.34 6.34 -0.32 5.68 -1 5 C-0.625 2.375 -0.625 2.375 0 0 Z " fill="#E5E7F2" transform="translate(282,481)"/>
<path d="M0 0 C2 2 2 2 2.125 4.625 C2.08375 5.40875 2.0425 6.1925 2 7 C0.68 7 -0.64 7 -2 7 C-2.6875 5.1875 -2.6875 5.1875 -3 3 C-1.5625 1.25 -1.5625 1.25 0 0 Z " fill="#1E1D42" transform="translate(318,442)"/>
<path d="M0 0 C0.33 0.66 0.66 1.32 1 2 C1.99 1.67 2.98 1.34 4 1 C4 1.66 4 2.32 4 3 C4.66 3.33 5.32 3.66 6 4 C5.01 5.485 5.01 5.485 4 7 C2.02 5.35 0.04 3.7 -2 2 C-1.34 1.34 -0.68 0.68 0 0 Z " fill="#D8DCE6" transform="translate(454,393)"/>
<path d="M0 0 C0.66 0.33 1.32 0.66 2 1 C1.401875 1.268125 0.80375 1.53625 0.1875 1.8125 C-1.97224808 2.98493467 -3.35790256 4.19369282 -5 6 C-6.32 5.34 -7.64 4.68 -9 4 C-7.54618103 3.30300448 -6.08677047 2.61766134 -4.625 1.9375 C-3.40683594 1.36322266 -3.40683594 1.36322266 -2.1640625 0.77734375 C-1.44992187 0.52082031 -0.73578125 0.26429688 0 0 Z " fill="#CBCDDF" transform="translate(656,872)"/>
<path d="M0 0 C1.32 0.33 2.64 0.66 4 1 C4 1.66 4 2.32 4 3 C4.66 3 5.32 3 6 3 C6.33 3.99 6.66 4.98 7 6 C4 6 4 6 1.8125 4.125 C0 2 0 2 0 0 Z " fill="#151436" transform="translate(314,831)"/>
<path d="M0 0 C1.65 1.65 3.3 3.3 5 5 C4.67 5.66 4.34 6.32 4 7 C2.0625 6.25 2.0625 6.25 0 5 C-0.8125 2.9375 -0.8125 2.9375 -1 1 C-0.67 0.67 -0.34 0.34 0 0 Z " fill="#E1E4F0" transform="translate(293,808)"/>
<path d="M0 0 C3.25543229 0.34879632 4.01873107 1.02133261 6.25 3.5625 C6.8275 4.366875 7.405 5.17125 8 6 C7.01 6.33 6.02 6.66 5 7 C5 6.01 5 5.02 5 4 C4.360625 3.896875 3.72125 3.79375 3.0625 3.6875 C2.381875 3.460625 1.70125 3.23375 1 3 C0.67 2.01 0.34 1.02 0 0 Z " fill="#222443" transform="translate(354,808)"/>
<path d="M0 0 C0.33 0 0.66 0 1 0 C1.36220266 1.79005941 1.71452469 3.58212057 2.0625 5.375 C2.25972656 6.37273438 2.45695312 7.37046875 2.66015625 8.3984375 C3 11 3 11 2 13 C1.34 13 0.68 13 0 13 C0 8.71 0 4.42 0 0 Z " fill="#EDEEF5" transform="translate(316,739)"/>
<path d="M0 0 C0.99 0 1.98 0 3 0 C1.60667426 3.36720387 0.0210714 4.9859524 -3 7 C-2.25 2.25 -2.25 2.25 0 0 Z " fill="#111530" transform="translate(476,705)"/>
<path d="M0 0 C1.32 0.99 2.64 1.98 4 3 C1.525 4.485 1.525 4.485 -1 6 C-1.66 5.01 -2.32 4.02 -3 3 C-2.01 2.01 -1.02 1.02 0 0 Z " fill="#E5E7F2" transform="translate(449,664)"/>
<path d="M0 0 C2.01920337 1.30406884 4.01924973 2.63823419 6 4 C6 4.33 6 4.66 6 5 C3.125 5.1875 3.125 5.1875 0 5 C-0.66 4.01 -1.32 3.02 -2 2 C-1.34 2 -0.68 2 0 2 C0 1.34 0 0.68 0 0 Z " fill="#121233" transform="translate(686,426)"/>
<path d="M0 0 C0.99 0.33 1.98 0.66 3 1 C-0.465 3.97 -0.465 3.97 -4 7 C-4.33 6.01 -4.66 5.02 -5 4 C-4.34 4 -3.68 4 -3 4 C-3 3.34 -3 2.68 -3 2 C-2.01 2 -1.02 2 0 2 C0 1.34 0 0.68 0 0 Z " fill="#161B36" transform="translate(458,877)"/>
<path d="M0 0 C1.1875 1.6875 1.1875 1.6875 2 4 C0.625 6.75 0.625 6.75 -1 9 C-1.66 8.01 -2.32 7.02 -3 6 C-2.01 4.02 -1.02 2.04 0 0 Z " fill="#20223F" transform="translate(702,764)"/>
<path d="M0 0 C0.75 1.75 0.75 1.75 1 4 C-0.9375 6.25 -0.9375 6.25 -3 8 C-3.75 6.25 -3.75 6.25 -4 4 C-2.0625 1.75 -2.0625 1.75 0 0 Z " fill="#151937" transform="translate(308,453)"/>
<path d="M0 0 C1.32 0.66 2.64 1.32 4 2 C-1.75 6 -1.75 6 -4 6 C-2.84826645 3.53199953 -1.95216435 1.95216435 0 0 Z " fill="#141834" transform="translate(378,451)"/>
<path d="M0 0 C5.75 0.75 5.75 0.75 8 3 C4.98968256 3.93423645 4.13349732 4.04449911 1 3 C0.67 2.01 0.34 1.02 0 0 Z " fill="#E7E7F2" transform="translate(634,450)"/>
<path d="M0 0 C3.375 -0.125 3.375 -0.125 7 0 C7.66 0.66 8.32 1.32 9 2 C8.67 2.66 8.34 3.32 8 4 C5.64828869 3.40138258 3.3140622 2.73075648 1 2 C0.67 1.34 0.34 0.68 0 0 Z " fill="#232441" transform="translate(634,448)"/>
<path d="M0 0 C2.625 0.9375 2.625 0.9375 5 2 C4.34 3.32 3.68 4.64 3 6 C1.35 4.35 -0.3 2.7 -2 1 C-1.34 0.67 -0.68 0.34 0 0 Z " fill="#D8D7E5" transform="translate(690,426)"/>
<path d="M0 0 C0.66 0.99 1.32 1.98 2 3 C0.68 4.32 -0.64 5.64 -2 7 C-2.33 5.35 -2.66 3.7 -3 2 C-2.01 1.34 -1.02 0.68 0 0 Z " fill="#151A38" transform="translate(704,834)"/>
<path d="M0 0 C-0.33 1.32 -0.66 2.64 -1 4 C-2.32 4.33 -3.64 4.66 -5 5 C-4.625 3.0625 -4.625 3.0625 -4 1 C-2 0 -2 0 0 0 Z " fill="#E3E6F3" transform="translate(589,599)"/>
<path d="M0 0 C4.875 4.75 4.875 4.75 6 7 C4.35 6.67 2.7 6.34 1 6 C0.4465236 3.92446352 0 2.15634036 0 0 Z " fill="#D3D6E2" transform="translate(266,580)"/>
<path d="M0 0 C0.33 0 0.66 0 1 0 C1.29296875 6.0546875 1.29296875 6.0546875 1 8 C0.01 8.66 -0.98 9.32 -2 10 C-1.54177532 6.53058454 -1.10868317 3.32604951 0 0 Z " fill="#3E3F59" transform="translate(269,520)"/>
<path d="M0 0 C0.66 0 1.32 0 2 0 C2.99 2.31 3.98 4.62 5 7 C3.68 6.67 2.36 6.34 1 6 C0.67 4.02 0.34 2.04 0 0 Z " fill="#1A1C34" transform="translate(736,483)"/>
<path d="M0 0 C0.66 1.32 1.32 2.64 2 4 C-0.64 4.33 -3.28 4.66 -6 5 C-2.25 1.125 -2.25 1.125 0 0 Z " fill="#121732" transform="translate(347,419)"/>
<path d="M0 0 C1.65 0.33 3.3 0.66 5 1 C2.61426621 2.89213369 0.92824652 4.02391783 -2 5 C-2.33 4.01 -2.66 3.02 -3 2 C-2.01 2 -1.02 2 0 2 C0 1.34 0 0.68 0 0 Z " fill="#E4E6F1" transform="translate(355,410)"/>
<path d="M0 0 C3.63 0.33 7.26 0.66 11 1 C11 1.33 11 1.66 11 2 C4.565 2.495 4.565 2.495 -2 3 C-1.34 2.01 -0.68 1.02 0 0 Z " fill="#101332" transform="translate(420,886)"/>
<path d="M0 0 C1.9375 0.3125 1.9375 0.3125 4 1 C4.33 1.99 4.66 2.98 5 4 C4.01 4.33 3.02 4.66 2 5 C1.01 4.34 0.02 3.68 -1 3 C-0.67 2.01 -0.34 1.02 0 0 Z " fill="#181C36" transform="translate(345,856)"/>
<path d="M0 0 C0.33 0.66 0.66 1.32 1 2 C1.66 2.33 2.32 2.66 3 3 C1.02 4.32 -0.96 5.64 -3 7 C-2.25 2.25 -2.25 2.25 0 0 Z " fill="#1D1E3B" transform="translate(688,848)"/>
<path d="M0 0 C1.9375 0.3125 1.9375 0.3125 4 1 C4.33 1.99 4.66 2.98 5 4 C2.03 3.505 2.03 3.505 -1 3 C-0.67 2.01 -0.34 1.02 0 0 Z " fill="#E1E5ED" transform="translate(730,807)"/>
<path d="M0 0 C0.66 0.33 1.32 0.66 2 1 C1.34 2.98 0.68 4.96 0 7 C-2 4 -2 4 -3 1 C-2.01 0.67 -1.02 0.34 0 0 Z " fill="#121634" transform="translate(285,787)"/>
<path d="M0 0 C2.475 0.495 2.475 0.495 5 1 C5 1.99 5 2.98 5 4 C4.01 4.33 3.02 4.66 2 5 C1.34 3.35 0.68 1.7 0 0 Z " fill="#E8E9F2" transform="translate(330,777)"/>
<path d="M0 0 C0 0.33 0 0.66 0 1 C-2.31 1 -4.62 1 -7 1 C-7.33 1.99 -7.66 2.98 -8 4 C-9.32 3.34 -10.64 2.68 -12 2 C-8.09971775 -0.60018816 -4.52565431 -0.15085514 0 0 Z " fill="#B1B4C7" transform="translate(334,730)"/>
<path d="M0 0 C1.32 1.32 2.64 2.64 4 4 C3.01 4.66 2.02 5.32 1 6 C0.34 5.67 -0.32 5.34 -1 5 C-0.67 3.35 -0.34 1.7 0 0 Z " fill="#E1E3F0" transform="translate(458,619)"/>
<path d="M0 0 C1.32 1.32 2.64 2.64 4 4 C2.35 4.66 0.7 5.32 -1 6 C-1.33 5.01 -1.66 4.02 -2 3 C-1.34 2.67 -0.68 2.34 0 2 C0 1.34 0 0.68 0 0 Z " fill="#E0E3ED" transform="translate(453,614)"/>
<path d="M0 0 C0.66 1.32 1.32 2.64 2 4 C0.02 4.66 -1.96 5.32 -4 6 C-1.125 1.125 -1.125 1.125 0 0 Z " fill="#D2D6E1" transform="translate(343,484)"/>
<path d="M0 0 C1.32 0 2.64 0 4 0 C4 1.65 4 3.3 4 5 C3.01 5.495 3.01 5.495 2 6 C1.34 4.02 0.68 2.04 0 0 Z " fill="#181A39" transform="translate(418,447)"/>
<path d="M0 0 C0.99 0.33 1.98 0.66 3 1 C0.94766315 3.2477975 -0.00667261 4.0022242 -3 5 C-3 4.01 -3 3.02 -3 2 C-2.01 1.34 -1.02 0.68 0 0 Z " fill="#E3E2EF" transform="translate(333,426)"/>
<path d="M0 0 C0.33 0.99 0.66 1.98 1 3 C1.99 3.33 2.98 3.66 4 4 C4 5.65 4 7.3 4 9 C0 4.5 0 4.5 0 0 Z " fill="#E0E3ED" transform="translate(463,402)"/>
</svg>
