<?xml version="1.0" standalone="no"?>
<!DOCTYPE svg PUBLIC "-//W3C//DTD SVG 20010904//EN"
 "http://www.w3.org/TR/2001/REC-SVG-20010904/DTD/svg10.dtd">
<svg version="1.0" xmlns="http://www.w3.org/2000/svg"
 viewBox="265 568 490 110"
 preserveAspectRatio="xMidYMid meet">

<g transform="translate(0.000000,1280.000000) scale(0.100000,-0.100000)"
fill="#000000" stroke="none">
<path d="M3073 6959 c-157 -50 -293 -221 -293 -369 0 -84 10 -88 221 -92 l179
-3 47 -48 48 -48 -52 -49 -52 -50 -171 0 c-94 0 -180 -4 -190 -10 -70 -38 -21
-228 88 -337 84 -84 249 -152 301 -124 46 25 51 46 51 224 l0 168 50 52 50 52
50 -52 50 -52 0 -165 c0 -90 4 -176 9 -189 14 -36 57 -50 117 -37 185 42 326
190 350 368 6 46 4 53 -19 76 -26 26 -26 26 -202 26 l-176 0 -52 50 -52 49 48
48 47 48 173 3 c101 1 181 7 194 14 12 6 27 24 34 40 28 68 -55 250 -150 326
-89 71 -225 117 -273 91 -45 -24 -47 -36 -48 -217 l0 -173 -50 -52 -50 -52
-50 52 -50 52 0 171 0 172 -29 29 c-35 34 -61 36 -148 8z m65 -232 l3 -118
-118 3 c-112 3 -118 4 -121 25 -10 69 137 217 208 210 25 -2 25 -2 28 -120z
m528 95 c76 -55 138 -143 132 -185 -3 -21 -8 -22 -120 -25 l-118 -3 0 105 c0
57 3 111 6 120 10 25 57 19 100 -12z m-528 -749 c-3 -112 -4 -118 -25 -121
-80 -12 -254 184 -206 231 3 4 57 7 120 7 l114 0 -3 -117z m660 90 c12 -86
-204 -270 -232 -197 -3 9 -6 63 -6 120 l0 105 118 -3 c112 -3 117 -4 120 -25z"/>
<path d="M4372 6739 c-34 -13 -62 -33 -80 -56 -24 -32 -27 -45 -27 -112 0 -60
4 -82 20 -103 31 -42 100 -73 225 -104 90 -21 121 -33 142 -55 34 -34 36 -69
4 -106 -22 -26 -31 -28 -109 -31 -99 -5 -137 10 -169 64 -23 39 -17 38 -91 23
-37 -8 -57 -17 -57 -26 0 -20 35 -85 57 -105 92 -83 357 -90 460 -12 48 36 64
65 70 128 9 86 -24 148 -98 186 -34 18 -153 51 -231 64 -53 10 -91 45 -91 85
0 51 31 74 108 79 78 5 119 -9 143 -50 17 -30 18 -30 82 -24 35 4 66 9 68 11
10 10 -22 75 -51 103 -48 47 -103 62 -221 61 -76 0 -114 -5 -154 -20z"/>
<path d="M5720 6751 c-91 -28 -176 -107 -205 -189 -39 -114 -27 -260 29 -354
94 -158 354 -198 512 -80 36 27 58 55 84 107 34 67 35 74 35 180 0 101 -2 115
-29 174 -36 76 -100 133 -178 156 -54 16 -204 19 -248 6z m233 -133 c105 -81
111 -313 10 -403 -77 -68 -214 -55 -276 26 -37 49 -48 85 -50 164 -2 167 70
249 214 243 54 -3 73 -9 102 -30z"/>
<path d="M7260 6748 c0 -4 47 -77 104 -163 l105 -157 -38 -56 c-20 -31 -73
-112 -119 -179 l-81 -123 80 0 c73 0 80 2 89 23 16 36 145 230 156 234 5 2 18
-11 28 -29 10 -18 46 -77 80 -130 l61 -97 78 -1 77 0 -54 83 c-29 45 -81 126
-114 179 l-62 98 100 156 c55 86 100 159 100 162 0 4 -32 6 -71 5 l-72 -1 -69
-108 c-37 -59 -68 -111 -68 -116 0 -26 -26 5 -91 106 l-73 115 -73 3 c-40 2
-73 0 -73 -4z"/>
<path d="M4872 6698 l3 -53 105 -1 105 -2 3 -286 2 -286 70 0 70 0 0 285 0
284 113 3 112 3 3 53 3 52 -296 0 -296 0 3 -52z"/>
<path d="M6496 6738 c-6 -17 -177 -488 -215 -590 l-29 -78 72 0 72 0 30 83 29
82 131 3 131 3 30 -83 29 -83 71 -3 72 -3 -44 123 c-23 68 -79 220 -122 338
l-79 215 -87 3 c-65 2 -88 -1 -91 -10z m139 -236 c25 -72 45 -136 45 -142 0
-6 -36 -10 -96 -10 -73 0 -95 3 -92 13 8 34 93 275 95 273 2 -2 23 -62 48
-134z"/>
<path d="M7018 6410 l-3 -340 73 0 72 0 0 340 0 340 -70 0 -69 0 -3 -340z"/>
</g>
</svg>
